ply
format ascii 1.0
comment PCL generated
element vertex 359
property float x
property float y
property float z
element face 205
property list uchar int vertex_indices
end_header
-123.74 3.7367 -4.1264 
-151.3 5.168 -3.8496 
-123.75 3.5845 -4.1265 
-124.18 3.6006 -4.1222 
-123.67 5.1682 -4.1257 
-143.24 4.7946 -3.9305 
-151.83 4.6306 -3.8448 
-124.1 5.16 -4.1214 
-134.45 3.9832 -4.0192 
-124.17 3.7418 -4.1221 
-123.73 3.8905 -4.1264 
-123.73 3.8814 -4.1264 
-123.48 3.879 -4.1289 
-134.21 3.9809 -4.0216 
-129.73 3.8071 -4.0666 
-132.76 3.8902 -4.0362 
-128.69 3.636 -4.0771 
-131.82 3.8318 -4.0456 
-133.94 3.9643 -4.0243 
-132.76 3.9201 -4.0361 
-124.17 3.8854 -4.122 
-132.75 3.9671 -4.0361 
-124.16 3.9105 -4.122 
-132.74 4.3078 -4.036 
-125.58 3.4413 -4.1084 
-123.33 12.49 -4.1217 
-123.44 10.075 -4.123 
-123.75 3.5697 -4.1265 
-124.19 3.4458 -4.1223 
-123.75 3.4472 -4.1266 
-124.18 3.5755 -4.1222 
-124.18 3.5833 -4.1222 
-130.72 3.7631 -4.0566 
-123.75 3.5715 -4.1265 
-118.71 3.8336 -4.1767 
-118.68 5.2635 -4.1755 
-118.6 10.084 -4.1714 
-146.29 4.7363 -3.9 
-153.16 4.6802 -3.8314 
-151.66 5.072 -3.846 
-123.86 10.074 -4.1189 
-123.74 12.382 -4.1177 
-124.1 5.16 -4.1214 
-123.73 3.8814 -4.1264 
-118.6 10.084 -4.1714 
-151.66 5.072 -3.846 
-124.16 3.9105 -4.122 
-124.17 3.8571 -2.2335 
-152 4.9877 3.624 
-125.58 3.7564 3.6021 
-146.51 4.732 3.6194 
-143.24 4.7946 -3.9305 
-124.17 3.886 -3.2536 
-129.53 3.9405 3.6054 
-145.87 4.7021 3.6189 
-132.74 4.3078 -4.036 
-132.72 4.0891 3.608 
-133.59 4.1295 3.6088 
-146.38 4.7345 3.3223 
-124.19 3.7405 1.8896 
-145.66 4.7483 1.6627 
-132.73 4.2609 -2.3962 
-124.95 3.8939 -2.2483 
-143.81 4.7836 -2.6068 
-151.3 5.168 -3.8496 
-151.4 5.1415 -2.7511 
-150.64 5.0031 0.86113 
-151.68 5.0689 0.25817 
-151.72 5.0586 0.68667 
-123.74 12.382 -4.1177 
-150.39 4.6579 7.1499 
-128.45 3.7893 7.1451 
-137.63 4.1834 7.1471 
-134.54 3.99 7.1465 
-132.72 3.8395 7.1463 
-127.14 3.5272 7.1452 
-139.77 4.317 7.1475 
-132.71 3.876 7.1462 
-132.71 3.9726 7.146 
-132.3 3.9687 7.1459 
-132.71 3.9878 7.146 
-135.85 3.8764 7.1471 
-123.76 3.544 7.1442 
-124.22 3.4879 7.1444 
-123.76 3.4818 7.1443 
-123.76 3.5706 7.1442 
-124.22 3.5566 7.1443 
-131.99 3.831 7.1461 
-130.26 3.7228 7.1458 
-132.72 3.7903 7.1463 
-152.91 4.7513 7.1505 
-150.39 4.6579 7.1499 
-123.76 3.4818 7.1443 
-123.75 3.6675 7.144 
-123.75 3.5845 -4.1265 
-123.74 3.7367 -4.1264 
-123.75 3.7354 1.3383 
-123.73 3.8814 -4.1264 
-123.73 3.8815 -3.8089 
-123.75 3.6475 4.4342 
-123.76 3.4818 7.1443 
-123.76 3.497 5.1919 
-123.76 3.4551 3.6008 
-123.75 3.5697 -4.1265 
-123.75 3.5715 -4.1265 
-123.75 3.6414 3.6007 
-123.76 3.5526 3.6007 
-123.75 3.626 5.1925 
-123.76 3.5488 5.1921 
-123.76 3.544 7.1442 
-123.75 3.5668 -2.2263 
-123.76 3.5094 3.6008 
-123.75 3.5985 -2.2262 
-123.74 3.7363 -2.2256 
-123.74 3.8366 -2.2252 
-123.75 3.5549 -2.2263 
-123.75 3.4472 -4.1266 
-123.76 3.4491 -2.2267 
-123.74 3.8824 -2.225 
-123.34 12.491 7.1294 
-123.33 12.49 -2.1906 
-124.19 3.4458 -4.1223 
-123.75 3.6675 7.144 
-123.73 3.8815 -3.8089 
-123.75 3.4472 -4.1266 
-129.53 3.9405 3.6054 
-152 4.9877 3.624 
-132.72 4.0891 3.608 
-146.51 4.732 3.6194 
-133.59 4.1295 3.6088 
-145.87 4.7021 3.6189 
-123.76 3.4551 3.6008 
-124.21 3.4536 3.6012 
-127.63 3.5616 3.6041 
-125.82 3.4485 3.6026 
-123.76 3.5094 3.6008 
-124.21 3.5155 3.6012 
-125.58 3.7564 3.6021 
-124.2 3.7401 3.6009 
-123.34 12.491 3.5921 
-151.68 5.0689 0.25817 
-132.43 10.111 3.6022 
-123.76 3.5094 3.6008 
-127.63 3.5616 3.6041 
-124.2 3.7401 3.6009 
-124.21 3.4536 3.6012 
-123.78 12.376 7.1297 
-124.21 3.5155 3.6012 
-124.22 3.4879 7.1444 
-123.76 3.4551 3.6008 
-123.9 9.6494 3.5952 
-124.19 3.7405 1.8896 
-124.22 3.5919 7.1443 
-123.76 3.5706 7.1442 
-152.33 4.9026 7.1501 
-152.91 4.7513 7.1505 
-123.75 3.734 7.1439 
-133.94 3.9643 -4.0243 
-134.47 3.9955 -2.4303 
-152.99 4.7285 3.6251 
-137.63 4.1834 7.1471 
-134.04 4.0497 7.1463 
-124.21 3.6845 7.1441 
-123.75 3.6712 3.6006 
-123.75 3.734 7.1439 
-123.75 3.8875 7.1436 
-124.16 3.9105 -4.122 
-131.82 3.8318 -4.0456 
-124.19 3.7405 1.8896 
-131.99 3.831 7.1461 
-131.95 3.8312 3.8737 
-135.85 3.8764 7.1471 
-134.5 3.863 -2.4313 
-125.58 3.7564 3.6021 
-123.86 10.074 -4.1189 
-124.21 3.7394 7.144 
-123.74 3.8824 -2.225 
-118.71 3.8336 -4.1767 
-152.91 4.7513 7.1505 
-124.19 3.8898 3.6008 
-124.13 5.1595 3.5996 
-123.68 5.1679 7.1415 
-123.48 9.4549 7.1344 
-124.2 3.7401 3.6009 
-134.23 3.9816 -3.1408 
-124.19 3.8898 3.6008 
-124.17 3.8571 -2.2335 
-123.75 3.8875 7.1436 
-123.68 5.1679 7.1415 
-134.45 3.9832 -4.0192 
-134.54 3.99 7.1465 
-124.2 3.8918 7.1438 
-126.38 3.7649 7.1446 
-153.16 4.6802 -3.8314 
-148.04 4.7028 7.1492 
-151.4 5.1415 -2.7511 
-131.85 3.8317 -2.3806 
-125.58 3.4413 -4.1084 
-125.82 3.4485 3.6026 
-151.71 5.0637 7.1496 
-127.14 3.5272 7.1452 
-130.26 3.7228 7.1458 
-130.39 3.7336 4.1246 
-131.85 3.8317 -2.3806 
-131.95 3.8312 3.8737 
-150.85 4.6491 3.6233 
-137.63 4.1834 7.1471 
-133.94 3.9643 -4.0243 
-134.23 3.9816 -3.1408 
-136.46 4.114 3.6113 
-132.76 3.8902 -4.0362 
-133.51 9.8267 3.6034 
-132.41 10.117 7.1358 
-132.75 3.8424 -2.3979 
-132.71 3.876 7.1462 
-131.71 3.9631 7.1458 
-132.71 4.0003 7.146 
-124.14 5.1592 7.1417 
-131.99 3.831 7.1461 
-132.72 3.7903 7.1463 
-123.77 12.378 3.5926 
-123.77 12.377 5.1635 
-123.34 12.491 5.2332 
-124.21 3.5037 5.1188 
-123.76 3.497 5.1919 
-123.75 3.7348 3.6006 
-123.75 3.7345 5.193 
-123.75 3.6531 5.1926 
-134.43 3.987 3.4734 
-134.43 3.9871 3.6096 
-133.59 3.9342 3.6089 
-151.7 5.0664 3.6236 
-131.94 3.8313 3.6076 
-132.42 10.112 3.7778 
-127.49 3.552 4.5916 
-130.41 3.7355 3.6063 
-131.94 3.8313 3.6076 
-136.46 4.114 3.6113 
-153.06 4.7081 0.47226 
-152 4.9877 3.624 
-151.72 5.0586 0.68667 
-123.74 3.8856 3.6004 
-123.74 3.8864 5.1937 
-135.35 3.8714 3.6105 
-132.73 3.8803 3.7476 
-134.47 3.9955 -2.4303 
-132.73 3.7994 3.6083 
-132.73 3.799 3.7472 
-132.73 3.8406 3.6083 
-132.73 3.8405 3.7474 
-133.59 3.8229 3.609 
-146.39 4.7344 3.6193 
-127.14 3.5272 7.1452 
-127.49 3.552 4.5916 
-128.69 3.636 -4.0771 
-123.68 5.1681 -2.2199 
-123.33 12.49 -4.1217 
-123.74 12.382 -4.1177 
-118.68 5.2635 -4.1755 
-124.13 5.1595 3.5996 
-132.67 4.9963 3.6072 
-123.68 5.1679 5.1996 
-123.47 9.5604 5.2197 
-123.48 9.4549 7.1344 
-123.34 12.491 7.1294 
-118.6 10.084 -4.1714 
-132.66 4.9965 7.1443 
-134.24 9.6362 3.6042 
-134.99 9.4405 7.1377 
-133.57 4.9791 3.6079 
-125.82 3.4485 3.6026 
-125.58 3.4413 -4.1084 
-130.65 3.757 -2.3579 
-130.72 3.7631 -4.0566 
-130.41 3.7355 3.6063 
-132.72 3.8395 7.1463 
-135.31 3.871 3.3313 
-133.59 3.8507 3.609 
-135.85 3.8764 7.1471 
-130.39 3.7336 4.1246 
-135.35 3.8714 3.6105 
-130.26 3.7228 7.1458 
-132.76 3.8148 -2.398 
-123.48 3.879 -4.1289 
-123.45 9.9693 -2.2007 
-118.63 9.9701 -2.1084 
-118.74 3.835 -2.1294 
-118.71 5.2629 -2.1245 
-118.63 9.9701 -2.1084 
-118.71 3.8336 -4.1767 
-123.44 10.075 -4.123 
-123.33 12.49 -4.1217 
-132.73 3.8805 3.6082 
-132.75 3.8881 -2.3977 
-134.26 3.9822 -2.4262 
-151.3 5.168 -3.8496 
-130.65 3.757 -2.3579 
-132.76 3.8148 -2.398 
-123.74 3.8824 -2.225 
-124.17 3.8865 -2.2334 
-124.11 5.1599 -2.2282 
-125.63 3.443 -2.2627 
-124.19 3.4477 -2.2351 
-123.75 12.381 -2.1989 
-123.76 3.4491 -2.2267 
-136.32 4.1053 3.1691 
-151.67 5.0712 -2.7564 
-153.14 4.687 -2.7857 
-124.17 3.886 -3.2536 
-130.65 3.757 -2.3579 
-127.63 3.5616 3.6041 
-128.45 3.619 -2.3161 
-135.31 3.871 3.3313 
-118.74 3.835 -2.1294 
-118.71 5.2629 -2.1245 
-123.44 10.075 -4.123 
-123.68 5.168 3.5992 
-151.69 4.6333 -2.7582 
-118.63 9.9701 -2.1084 
-123.68 5.1681 -2.2199 
-132.75 3.8424 -2.3979 
-136.32 4.1053 3.1691 
-131.85 3.8317 -2.3806 
-134.5 3.863 -2.4313 
-134.5 3.863 -2.4313 
-125.63 3.443 -2.2627 
-118.74 3.835 -2.1294 
-123.45 9.9693 -2.2007 
-146.43 4.7336 7.1487 
-152.33 4.9026 7.1501 
-132.45 9.6384 3.6026 
-123.77 12.378 3.5926 
-152.99 4.7285 3.6251 
-151.23 4.642 0.76771 
-153.14 4.687 -2.7857 
-151.83 4.6306 -3.8448 
-132.44 9.4437 7.137 
-151.71 5.0637 7.1496 
-151.7 5.0664 3.6236 
-132.43 10.111 3.6022 
-123.93 9.4543 7.1345 
-132.41 10.117 7.1358 
-123.47 9.6499 3.5948 
-123.34 12.491 5.2332 
-123.9 9.6494 3.5952 
-153.06 4.7081 0.47226 
-133.51 9.6371 3.6036 
-133.51 9.8267 3.6034 
-123.45 9.9693 -2.2007 
-123.34 12.491 3.5921 
-123.87 9.9692 -2.2087 
-123.77 12.378 3.5926 
-123.34 12.491 7.1294 
-123.78 12.376 7.1297 
-134.99 9.4405 7.1377 
-134.24 9.6362 3.6042 
-153.16 4.6802 -3.8314 
-123.33 12.49 -2.1906 
-123.75 12.381 -2.1989 
4 221 222 139 220
4 4 7 22 10
4 0 9 3 2
5 34 35 4 10 12
4 31 32 16 30
4 31 33 2 3
4 13 37 6 8
4 11 20 9 0
3 9 14 3
4 35 36 26 4
4 39 38 6 37
4 26 40 7 4
4 19 21 13 18
3 11 12 10
4 20 11 10 22
5 21 23 5 37 13
3 15 19 18
3 18 13 8
5 21 19 14 9 20
4 23 21 20 22
4 19 15 17 14
4 24 28 30 16
4 28 29 27 30
4 25 41 40 26
5 32 31 3 14 17
4 33 31 30 27
4 1 39 37 5
5 63 61 56 57 60
4 65 64 51 63
3 47 62 52
3 58 54 50
4 61 62 53 56
4 60 57 54 58
3 66 60 58
4 61 63 51 55
5 62 47 59 49 53
5 62 61 55 46 52
5 67 65 63 60 66
3 68 67 66
5 48 68 66 58 50
4 329 90 70 194
4 86 88 75 83
4 72 76 194 70
3 77 78 73
5 78 80 161 72 73
3 76 72 161
5 78 77 87 71 79
3 80 78 79
4 82 86 83 84
5 88 86 152 71 87
4 89 88 87 74
3 81 89 74
4 86 82 85 152
4 223 224 142 147
5 226 227 99 163 225
5 112 113 96 163 105
3 99 105 163
4 110 115 103 104
3 113 114 96
4 106 108 101 111
4 108 109 100 101
4 117 116 103 115
4 110 112 105 106
5 108 106 105 99 107
4 109 108 107 153
4 115 110 106 111
4 112 110 104 94
4 113 112 94 95
5 114 113 95 97 98
4 102 117 115 111
3 43 123 283
4 136 135 131 132
4 133 136 132 134
3 138 151 137
5 293 294 228 230 292
5 114 298 241 225 96
4 299 300 180 185
4 301 302 121 197
4 221 233 212 146
4 156 175 162 122
4 223 234 200 148
5 127 260 259 179 125
4 120 303 220 139
4 302 304 124 121
4 192 71 152 162
3 227 107 99
4 159 155 154 239
5 306 307 238 240 140
4 122 162 152 85
3 175 192 162
4 226 242 187 164
4 309 311 254 273
3 96 225 163
4 170 244 214 169
4 165 191 175 156
3 80 216 161
4 313 314 258 177
5 216 266 328 76 161
4 286 287 255 176
4 300 350 344 180
4 339 331 150 330
4 262 263 181 261
4 178 332 205 91
4 182 340 217 188
4 314 318 265 258
4 228 305 237 229
4 298 319 316 241
3 299 186 308
4 125 179 183 173
4 242 261 181 187
4 333 321 209 205
4 190 229 237 160
4 191 165 188 217
4 215 79 71 192
4 191 215 192 175
4 196 320 248 236
4 199 231 239 154
4 202 247 219 201
3 251 130 128
4 204 249 275 218
4 306 195 295 45
4 209 206 91 205
3 207 208 189
3 76 328 194
4 126 338 251 128
4 293 322 167 210
5 297 323 312 250 246
5 267 268 212 233 211
4 129 269 260 127
5 244 230 229 190 214
4 216 80 79 215
5 266 216 215 191 217
4 353 341 336 340
5 320 324 276 277 248
5 247 250 243 171 219
4 222 221 146 119
4 224 223 148 92
4 227 226 164 93
3 230 228 229
4 274 279 253 310
4 233 221 220 141
4 234 223 147 143
4 107 227 93 153
4 240 238 159 239
4 242 226 225 241
4 244 170 232 292
4 349 343 262 342
4 294 158 305 228
4 261 242 241 316
4 317 245 321 333
4 247 202 235 246
4 249 204 236 248
3 250 312 243
3 211 233 141
4 269 129 130 251
3 230 244 292
3 276 280 277
3 250 247 246
3 277 249 248
4 279 281 252 253
4 311 325 271 254
4 330 150 259 260
4 343 352 263 262
4 264 353 340 182
4 268 267 231 199
4 346 330 260 269
4 340 336 266 217
4 342 262 261 316
4 282 272 203 213
5 280 278 275 249 277
3 172 282 213
4 285 327 290 44
4 287 288 284 255
5 294 293 210 157 184
4 296 297 246 235
3 298 114 98
5 300 299 308 166 42
4 302 301 198 145
4 303 120 291 69
4 304 302 145 149
4 307 306 45 193
4 311 309 274 310
4 319 348 342 316
4 350 300 42 174
4 334 356 335 317
5 186 299 185 144 168
3 195 306 140
4 322 293 292 232
3 158 294 184
5 245 317 335 189 208
4 325 311 310 270
4 322 309 273 167
5 118 326 289 283 123
4 337 329 194 328
4 345 334 317 333
5 354 337 328 266 336
4 347 339 330 346
4 332 345 333 205
3 355 347 346
4 357 349 342 348
4 358 351 344 350
3 341 354 336
5 338 355 346 269 251
4 256 357 348 315
4 257 358 350 174
