ply
format ascii 1.0
comment PCL generated
element vertex 359
property float x
property float y
property float z
property float nx
property float ny
property float nz
property float curvature
element face 11
property list uchar int vertex_indices
end_header
-123.74 3.7367 -4.1264 0 0 0 0 
-151.3 5.168 -3.8496 0 0 0 0 
-123.75 3.5845 -4.1265 0 0 0 0 
-124.18 3.6006 -4.1222 0 0 0 0 
-123.67 5.1682 -4.1257 0 0 0 0 
-143.24 4.7946 -3.9305 0 0 0 0 
-151.83 4.6306 -3.8448 0 0 0 0 
-124.1 5.16 -4.1214 0 0 0 0 
-134.45 3.9832 -4.0192 0 0 0 0 
-124.17 3.7418 -4.1221 0 0 0 0 
-123.73 3.8905 -4.1264 0 0 0 0 
-123.73 3.8814 -4.1264 0 0 0 0 
-123.48 3.879 -4.1289 0 0 0 0 
-134.21 3.9809 -4.0216 0 0 0 0 
-129.73 3.8071 -4.0666 0 0 0 0 
-132.76 3.8902 -4.0362 0 0 0 0 
-128.69 3.636 -4.0771 0 0 0 0 
-131.82 3.8318 -4.0456 0 0 0 0 
-133.94 3.9643 -4.0243 0 0 0 0 
-132.76 3.9201 -4.0361 0 0 0 0 
-124.17 3.8854 -4.122 0 0 0 0 
-132.75 3.9671 -4.0361 0 0 0 0 
-124.16 3.9105 -4.122 0 0 0 0 
-132.74 4.3078 -4.036 0 0 0 0 
-125.58 3.4413 -4.1084 0 0 0 0 
-123.33 12.49 -4.1217 0 0 0 0 
-123.44 10.075 -4.123 0 0 0 0 
-123.75 3.5697 -4.1265 0 0 0 0 
-124.19 3.4458 -4.1223 0 0 0 0 
-123.75 3.4472 -4.1266 0 0 0 0 
-124.18 3.5755 -4.1222 0 0 0 0 
-124.18 3.5833 -4.1222 0 0 0 0 
-130.72 3.7631 -4.0566 0 0 0 0 
-123.75 3.5715 -4.1265 0 0 0 0 
-118.71 3.8336 -4.1767 0 0 0 0 
-118.68 5.2635 -4.1755 0 0 0 0 
-118.6 10.084 -4.1714 0 0 0 0 
-146.29 4.7363 -3.9 0 0 0 0 
-153.16 4.6802 -3.8314 0 0 0 0 
-151.66 5.072 -3.846 0 0 0 0 
-123.86 10.074 -4.1189 0 0 0 0 
-123.74 12.382 -4.1177 0 0 0 0 
-124.1 5.16 -4.1214 0 0 0 0 
-123.73 3.8814 -4.1264 0 0 0 0 
-118.6 10.084 -4.1714 0 0 0 0 
-151.66 5.072 -3.846 0 0 0 0 
-124.16 3.9105 -4.122 0 0 0 0 
-124.17 3.8571 -2.2335 0 0 0 0 
-152 4.9877 3.624 0 0 0 0 
-125.58 3.7564 3.6021 0 0 0 0 
-146.51 4.732 3.6194 0 0 0 0 
-143.24 4.7946 -3.9305 0 0 0 0 
-124.17 3.886 -3.2536 0 0 0 0 
-129.53 3.9405 3.6054 0 0 0 0 
-145.87 4.7021 3.6189 0 0 0 0 
-132.74 4.3078 -4.036 0 0 0 0 
-132.72 4.0891 3.608 0 0 0 0 
-133.59 4.1295 3.6088 0 0 0 0 
-146.38 4.7345 3.3223 0 0 0 0 
-124.19 3.7405 1.8896 0 0 0 0 
-145.66 4.7483 1.6627 0 0 0 0 
-132.73 4.2609 -2.3962 0 0 0 0 
-124.95 3.8939 -2.2483 0 0 0 0 
-143.81 4.7836 -2.6068 0 0 0 0 
-151.3 5.168 -3.8496 0 0 0 0 
-151.4 5.1415 -2.7511 0 0 0 0 
-150.64 5.0031 0.86113 0 0 0 0 
-151.68 5.0689 0.25817 0 0 0 0 
-151.72 5.0586 0.68667 0 0 0 0 
-123.74 12.382 -4.1177 0 0 0 0 
-150.39 4.6579 7.1499 0 0 0 0 
-128.45 3.7893 7.1451 0 0 0 0 
-137.63 4.1834 7.1471 0 0 0 0 
-134.54 3.99 7.1465 0 0 0 0 
-132.72 3.8395 7.1463 0 0 0 0 
-127.14 3.5272 7.1452 0 0 0 0 
-139.77 4.317 7.1475 0 0 0 0 
-132.71 3.876 7.1462 0 0 0 0 
-132.71 3.9726 7.146 0 0 0 0 
-132.3 3.9687 7.1459 0 0 0 0 
-132.71 3.9878 7.146 0 0 0 0 
-135.85 3.8764 7.1471 0 0 0 0 
-123.76 3.544 7.1442 0 0 0 0 
-124.22 3.4879 7.1444 0 0 0 0 
-123.76 3.4818 7.1443 0 0 0 0 
-123.76 3.5706 7.1442 0 0 0 0 
-124.22 3.5566 7.1443 0 0 0 0 
-131.99 3.831 7.1461 0 0 0 0 
-130.26 3.7228 7.1458 0 0 0 0 
-132.72 3.7903 7.1463 0 0 0 0 
-152.91 4.7513 7.1505 0 0 0 0 
-150.39 4.6579 7.1499 0 0 0 0 
-123.76 3.4818 7.1443 0 0 0 0 
-123.75 3.6675 7.144 0 0 0 0 
-123.75 3.5845 -4.1265 0 0 0 0 
-123.74 3.7367 -4.1264 0 0 0 0 
-123.75 3.7354 1.3383 0 0 0 0 
-123.73 3.8814 -4.1264 0 0 0 0 
-123.73 3.8815 -3.8089 0 0 0 0 
-123.75 3.6475 4.4342 0 0 0 0 
-123.76 3.4818 7.1443 0 0 0 0 
-123.76 3.497 5.1919 0 0 0 0 
-123.76 3.4551 3.6008 0 0 0 0 
-123.75 3.5697 -4.1265 0 0 0 0 
-123.75 3.5715 -4.1265 0 0 0 0 
-123.75 3.6414 3.6007 0 0 0 0 
-123.76 3.5526 3.6007 0 0 0 0 
-123.75 3.626 5.1925 0 0 0 0 
-123.76 3.5488 5.1921 0 0 0 0 
-123.76 3.544 7.1442 0 0 0 0 
-123.75 3.5668 -2.2263 0 0 0 0 
-123.76 3.5094 3.6008 0 0 0 0 
-123.75 3.5985 -2.2262 0 0 0 0 
-123.74 3.7363 -2.2256 0 0 0 0 
-123.74 3.8366 -2.2252 0 0 0 0 
-123.75 3.5549 -2.2263 0 0 0 0 
-123.75 3.4472 -4.1266 0 0 0 0 
-123.76 3.4491 -2.2267 0 0 0 0 
-123.74 3.8824 -2.225 0 0 0 0 
-123.34 12.491 7.1294 0 0 0 0 
-123.33 12.49 -2.1906 0 0 0 0 
-124.19 3.4458 -4.1223 0 0 0 0 
-123.75 3.6675 7.144 0 0 0 0 
-123.73 3.8815 -3.8089 0 0 0 0 
-123.75 3.4472 -4.1266 0 0 0 0 
-129.53 3.9405 3.6054 0 0 0 0 
-152 4.9877 3.624 0 0 0 0 
-132.72 4.0891 3.608 0 0 0 0 
-146.51 4.732 3.6194 0 0 0 0 
-133.59 4.1295 3.6088 0 0 0 0 
-145.87 4.7021 3.6189 0 0 0 0 
-123.76 3.4551 3.6008 0 0 0 0 
-124.21 3.4536 3.6012 0 0 0 0 
-127.63 3.5616 3.6041 0 0 0 0 
-125.82 3.4485 3.6026 0 0 0 0 
-123.76 3.5094 3.6008 0 0 0 0 
-124.21 3.5155 3.6012 0 0 0 0 
-125.58 3.7564 3.6021 0 0 0 0 
-124.2 3.7401 3.6009 0 0 0 0 
-123.34 12.491 3.5921 0 0 0 0 
-151.68 5.0689 0.25817 0 0 0 0 
-132.43 10.111 3.6022 0 0 0 0 
-123.76 3.5094 3.6008 0 0 0 0 
-127.63 3.5616 3.6041 0 0 0 0 
-124.2 3.7401 3.6009 0 0 0 0 
-124.21 3.4536 3.6012 0 0 0 0 
-123.78 12.376 7.1297 0 0 0 0 
-124.21 3.5155 3.6012 0 0 0 0 
-124.22 3.4879 7.1444 0 0 0 0 
-123.76 3.4551 3.6008 0 0 0 0 
-123.9 9.6494 3.5952 0 0 0 0 
-124.19 3.7405 1.8896 0 0 0 0 
-124.22 3.5919 7.1443 0 0 0 0 
-123.76 3.5706 7.1442 0 0 0 0 
-152.33 4.9026 7.1501 0 0 0 0 
-152.91 4.7513 7.1505 0 0 0 0 
-123.75 3.734 7.1439 0 0 0 0 
-133.94 3.9643 -4.0243 0 0 0 0 
-134.47 3.9955 -2.4303 0 0 0 0 
-152.99 4.7285 3.6251 0 0 0 0 
-137.63 4.1834 7.1471 0 0 0 0 
-134.04 4.0497 7.1463 0 0 0 0 
-124.21 3.6845 7.1441 0 0 0 0 
-123.75 3.6712 3.6006 0 0 0 0 
-123.75 3.734 7.1439 0 0 0 0 
-123.75 3.8875 7.1436 0 0 0 0 
-124.16 3.9105 -4.122 0 0 0 0 
-131.82 3.8318 -4.0456 0 0 0 0 
-124.19 3.7405 1.8896 0 0 0 0 
-131.99 3.831 7.1461 0 0 0 0 
-131.95 3.8312 3.8737 0 0 0 0 
-135.85 3.8764 7.1471 0 0 0 0 
-134.5 3.863 -2.4313 0 0 0 0 
-125.58 3.7564 3.6021 0 0 0 0 
-123.86 10.074 -4.1189 0 0 0 0 
-124.21 3.7394 7.144 0 0 0 0 
-123.74 3.8824 -2.225 0 0 0 0 
-118.71 3.8336 -4.1767 0 0 0 0 
-152.91 4.7513 7.1505 0 0 0 0 
-124.19 3.8898 3.6008 0 0 0 0 
-124.13 5.1595 3.5996 0 0 0 0 
-123.68 5.1679 7.1415 0 0 0 0 
-123.48 9.4549 7.1344 0 0 0 0 
-124.2 3.7401 3.6009 0 0 0 0 
-134.23 3.9816 -3.1408 0 0 0 0 
-124.19 3.8898 3.6008 0 0 0 0 
-124.17 3.8571 -2.2335 0 0 0 0 
-123.75 3.8875 7.1436 0 0 0 0 
-123.68 5.1679 7.1415 0 0 0 0 
-134.45 3.9832 -4.0192 0 0 0 0 
-134.54 3.99 7.1465 0 0 0 0 
-124.2 3.8918 7.1438 0 0 0 0 
-126.38 3.7649 7.1446 0 0 0 0 
-153.16 4.6802 -3.8314 0 0 0 0 
-148.04 4.7028 7.1492 0 0 0 0 
-151.4 5.1415 -2.7511 0 0 0 0 
-131.85 3.8317 -2.3806 0 0 0 0 
-125.58 3.4413 -4.1084 0 0 0 0 
-125.82 3.4485 3.6026 0 0 0 0 
-151.71 5.0637 7.1496 0 0 0 0 
-127.14 3.5272 7.1452 0 0 0 0 
-130.26 3.7228 7.1458 0 0 0 0 
-130.39 3.7336 4.1246 0 0 0 0 
-131.85 3.8317 -2.3806 0 0 0 0 
-131.95 3.8312 3.8737 0 0 0 0 
-150.85 4.6491 3.6233 0 0 0 0 
-137.63 4.1834 7.1471 0 0 0 0 
-133.94 3.9643 -4.0243 0 0 0 0 
-134.23 3.9816 -3.1408 0 0 0 0 
-136.46 4.114 3.6113 0 0 0 0 
-132.76 3.8902 -4.0362 0 0 0 0 
-133.51 9.8267 3.6034 0 0 0 0 
-132.41 10.117 7.1358 0 0 0 0 
-132.75 3.8424 -2.3979 0 0 0 0 
-132.71 3.876 7.1462 0 0 0 0 
-131.71 3.9631 7.1458 0 0 0 0 
-132.71 4.0003 7.146 0 0 0 0 
-124.14 5.1592 7.1417 0 0 0 0 
-131.99 3.831 7.1461 0 0 0 0 
-132.72 3.7903 7.1463 0 0 0 0 
-123.77 12.378 3.5926 0 0 0 0 
-123.77 12.377 5.1635 0 0 0 0 
-123.34 12.491 5.2332 0 0 0 0 
-124.21 3.5037 5.1188 0 0 0 0 
-123.76 3.497 5.1919 0 0 0 0 
-123.75 3.7348 3.6006 0 0 0 0 
-123.75 3.7345 5.193 0 0 0 0 
-123.75 3.6531 5.1926 0 0 0 0 
-134.43 3.987 3.4734 0 0 0 0 
-134.43 3.9871 3.6096 0 0 0 0 
-133.59 3.9342 3.6089 0 0 0 0 
-151.7 5.0664 3.6236 0 0 0 0 
-131.94 3.8313 3.6076 0 0 0 0 
-132.42 10.112 3.7778 0 0 0 0 
-127.49 3.552 4.5916 0 0 0 0 
-130.41 3.7355 3.6063 0 0 0 0 
-131.94 3.8313 3.6076 0 0 0 0 
-136.46 4.114 3.6113 0 0 0 0 
-153.06 4.7081 0.47226 0 0 0 0 
-152 4.9877 3.624 0 0 0 0 
-151.72 5.0586 0.68667 0 0 0 0 
-123.74 3.8856 3.6004 0 0 0 0 
-123.74 3.8864 5.1937 0 0 0 0 
-135.35 3.8714 3.6105 0 0 0 0 
-132.73 3.8803 3.7476 0 0 0 0 
-134.47 3.9955 -2.4303 0 0 0 0 
-132.73 3.7994 3.6083 0 0 0 0 
-132.73 3.799 3.7472 0 0 0 0 
-132.73 3.8406 3.6083 0 0 0 0 
-132.73 3.8405 3.7474 0 0 0 0 
-133.59 3.8229 3.609 0 0 0 0 
-146.39 4.7344 3.6193 0 0 0 0 
-127.14 3.5272 7.1452 0 0 0 0 
-127.49 3.552 4.5916 0 0 0 0 
-128.69 3.636 -4.0771 0 0 0 0 
-123.68 5.1681 -2.2199 0 0 0 0 
-123.33 12.49 -4.1217 0 0 0 0 
-123.74 12.382 -4.1177 0 0 0 0 
-118.68 5.2635 -4.1755 0 0 0 0 
-124.13 5.1595 3.5996 0 0 0 0 
-132.67 4.9963 3.6072 0 0 0 0 
-123.68 5.1679 5.1996 0 0 0 0 
-123.47 9.5604 5.2197 0 0 0 0 
-123.48 9.4549 7.1344 0 0 0 0 
-123.34 12.491 7.1294 0 0 0 0 
-118.6 10.084 -4.1714 0 0 0 0 
-132.66 4.9965 7.1443 0 0 0 0 
-134.24 9.6362 3.6042 0 0 0 0 
-134.99 9.4405 7.1377 0 0 0 0 
-133.57 4.9791 3.6079 0 0 0 0 
-125.82 3.4485 3.6026 0 0 0 0 
-125.58 3.4413 -4.1084 0 0 0 0 
-130.65 3.757 -2.3579 0 0 0 0 
-130.72 3.7631 -4.0566 0 0 0 0 
-130.41 3.7355 3.6063 0 0 0 0 
-132.72 3.8395 7.1463 0 0 0 0 
-135.31 3.871 3.3313 0 0 0 0 
-133.59 3.8507 3.609 0 0 0 0 
-135.85 3.8764 7.1471 0 0 0 0 
-130.39 3.7336 4.1246 0 0 0 0 
-135.35 3.8714 3.6105 0 0 0 0 
-130.26 3.7228 7.1458 0 0 0 0 
-132.76 3.8148 -2.398 0 0 0 0 
-123.48 3.879 -4.1289 0 0 0 0 
-123.45 9.9693 -2.2007 0 0 0 0 
-118.63 9.9701 -2.1084 0 0 0 0 
-118.74 3.835 -2.1294 0 0 0 0 
-118.71 5.2629 -2.1245 0 0 0 0 
-118.63 9.9701 -2.1084 0 0 0 0 
-118.71 3.8336 -4.1767 0 0 0 0 
-123.44 10.075 -4.123 0 0 0 0 
-123.33 12.49 -4.1217 0 0 0 0 
-132.73 3.8805 3.6082 0 0 0 0 
-132.75 3.8881 -2.3977 0 0 0 0 
-134.26 3.9822 -2.4262 0 0 0 0 
-151.3 5.168 -3.8496 0 0 0 0 
-130.65 3.757 -2.3579 0 0 0 0 
-132.76 3.8148 -2.398 0 0 0 0 
-123.74 3.8824 -2.225 0 0 0 0 
-124.17 3.8865 -2.2334 0 0 0 0 
-124.11 5.1599 -2.2282 0 0 0 0 
-125.63 3.443 -2.2627 0 0 0 0 
-124.19 3.4477 -2.2351 0 0 0 0 
-123.75 12.381 -2.1989 0 0 0 0 
-123.76 3.4491 -2.2267 0 0 0 0 
-136.32 4.1053 3.1691 0 0 0 0 
-151.67 5.0712 -2.7564 0 0 0 0 
-153.14 4.687 -2.7857 0 0 0 0 
-124.17 3.886 -3.2536 0 0 0 0 
-130.65 3.757 -2.3579 0 0 0 0 
-127.63 3.5616 3.6041 0 0 0 0 
-128.45 3.619 -2.3161 0 0 0 0 
-135.31 3.871 3.3313 0 0 0 0 
-118.74 3.835 -2.1294 0 0 0 0 
-118.71 5.2629 -2.1245 0 0 0 0 
-123.44 10.075 -4.123 0 0 0 0 
-123.68 5.168 3.5992 0 0 0 0 
-151.69 4.6333 -2.7582 0 0 0 0 
-118.63 9.9701 -2.1084 0 0 0 0 
-123.68 5.1681 -2.2199 0 0 0 0 
-132.75 3.8424 -2.3979 0 0 0 0 
-136.32 4.1053 3.1691 0 0 0 0 
-131.85 3.8317 -2.3806 0 0 0 0 
-134.5 3.863 -2.4313 0 0 0 0 
-134.5 3.863 -2.4313 0 0 0 0 
-125.63 3.443 -2.2627 0 0 0 0 
-118.74 3.835 -2.1294 0 0 0 0 
-123.45 9.9693 -2.2007 0 0 0 0 
-146.43 4.7336 7.1487 0 0 0 0 
-152.33 4.9026 7.1501 0 0 0 0 
-132.45 9.6384 3.6026 0 0 0 0 
-123.77 12.378 3.5926 0 0 0 0 
-152.99 4.7285 3.6251 0 0 0 0 
-151.23 4.642 0.76771 0 0 0 0 
-153.14 4.687 -2.7857 0 0 0 0 
-151.83 4.6306 -3.8448 0 0 0 0 
-132.44 9.4437 7.137 0 0 0 0 
-151.71 5.0637 7.1496 0 0 0 0 
-151.7 5.0664 3.6236 0 0 0 0 
-132.43 10.111 3.6022 0 0 0 0 
-123.93 9.4543 7.1345 0 0 0 0 
-132.41 10.117 7.1358 0 0 0 0 
-123.47 9.6499 3.5948 0 0 0 0 
-123.34 12.491 5.2332 0 0 0 0 
-123.9 9.6494 3.5952 0 0 0 0 
-153.06 4.7081 0.47226 0 0 0 0 
-133.51 9.6371 3.6036 0 0 0 0 
-133.51 9.8267 3.6034 0 0 0 0 
-123.45 9.9693 -2.2007 0 0 0 0 
-123.34 12.491 3.5921 0 0 0 0 
-123.87 9.9692 -2.2087 0 0 0 0 
-123.77 12.378 3.5926 0 0 0 0 
-123.34 12.491 7.1294 0 0 0 0 
-123.78 12.376 7.1297 0 0 0 0 
-134.99 9.4405 7.1377 0 0 0 0 
-134.24 9.6362 3.6042 0 0 0 0 
-153.16 4.6802 -3.8314 0 0 0 0 
-123.33 12.49 -2.1906 0 0 0 0 
-123.75 12.381 -2.1989 0 0 0 0 
3 11 43 97
3 18 207 157
3 24 197 271
3 26 290 315
3 34 177 289
3 36 265 44
3 72 160 206
3 84 92 100
3 90 178 155
3 134 270 198
3 172 323 324
