ply
format ascii 1.0
comment PCL generated
element vertex 219
property float x
property float y
property float z
element face 847
property list uchar int vertex_indices
end_header
-118.63 9.9701 -2.1084 
-118.63 9.9701 -2.1084 
-118.6 10.084 -4.1714 
-152.99 4.7285 3.6251 
-152.99 4.7285 3.6251 
-150.85 4.6491 3.6233 
-146.29 4.7363 -3.9 
-134.5 3.863 -2.4313 
-134.45 3.9832 -4.0192 
-151.83 4.6306 -3.8448 
-151.69 4.6333 -2.7581 
-153.14 4.687 -2.7857 
-151.3 5.168 -3.8496 
-153.06 4.7081 0.47226 
-151.68 5.0689 0.25817 
-118.68 5.2635 -4.1755 
-118.68 5.2635 -4.1755 
-118.6 10.084 -4.1714 
-118.71 3.8336 -4.1767 
-118.74 3.835 -2.1294 
-118.71 3.8336 -4.1767 
-118.74 3.835 -2.1294 
-118.71 3.8336 -4.1767 
-123.75 3.4472 -4.1266 
-118.74 3.835 -2.1294 
-146.51 4.732 3.6194 
-151.7 5.0664 3.6236 
-148.04 4.7028 7.1492 
-150.64 5.0031 0.86113 
-152.33 4.9026 7.1501 
-152.91 4.7513 7.1505 
-152 4.9877 3.624 
-153.16 4.6802 -3.8314 
-151.3 5.168 -3.8496 
-151.66 5.072 -3.846 
-153.16 4.6802 -3.8314 
-153.16 4.6802 -3.8314 
-151.67 5.0712 -2.7564 
-151.23 4.642 0.76771 
-153.06 4.7081 0.47226 
-151.3 5.168 -3.8496 
-128.69 3.636 -4.0771 
-128.45 3.619 -2.3161 
-125.58 3.4413 -4.1084 
-132.76 3.8148 -2.398 
-123.48 9.4549 7.1344 
-123.34 12.491 7.1294 
-123.34 12.491 7.1294 
-123.75 3.6675 7.144 
-123.75 3.734 7.1439 
-123.74 3.8864 5.1937 
-123.68 5.1679 5.1996 
-146.43 4.7336 7.1487 
-145.87 4.7021 3.6189 
-139.77 4.317 7.1475 
-150.39 4.6579 7.1499 
-145.87 4.7021 3.6189 
-143.24 4.7946 -3.9305 
-143.24 4.7946 -3.9305 
-145.66 4.7483 1.6627 
-123.67 5.1682 -4.1257 
-123.48 3.879 -4.1289 
-124.1 5.16 -4.1214 
-118.71 5.2629 -2.1245 
-123.47 9.5604 5.2197 
-123.76 3.4491 -2.2267 
-146.51 4.732 3.6194 
-151.71 5.0637 7.1496 
-151.71 5.0637 7.1496 
-134.99 9.4405 7.1377 
-151.72 5.0586 0.68667 
-151.68 5.0689 0.25817 
-151.66 5.072 -3.846 
-151.4 5.1415 -2.7511 
-151.83 4.6306 -3.8448 
-133.94 3.9643 -4.0243 
-132.76 3.8902 -4.0362 
-132.74 4.3078 -4.0359 
-133.94 3.9643 -4.0243 
-132.76 3.8902 -4.0362 
-132.75 3.9671 -4.0361 
-134.21 3.9809 -4.0216 
-123.33 12.49 -4.1217 
-118.6 10.084 -4.1714 
-123.48 9.4549 7.1344 
-123.78 12.376 7.1297 
-123.93 9.4543 7.1345 
-126.38 3.7649 7.1446 
-128.45 3.7893 7.1451 
-124.14 5.1592 7.1417 
-123.75 3.8875 7.1436 
-123.34 12.491 3.5921 
-123.77 12.377 5.1635 
-123.34 12.491 7.1294 
-123.78 12.376 7.1297 
-146.39 4.7344 3.6193 
-143.81 4.7836 -2.6068 
-136.32 4.1053 3.1691 
-132.42 10.112 3.7778 
-123.77 12.378 3.5926 
-132.43 10.111 3.6022 
-152.91 4.7513 7.1505 
-152.91 4.7513 7.1505 
-124.16 3.9105 -4.122 
-125.58 3.4413 -4.1084 
-123.75 3.5845 -4.1265 
-118.71 5.2629 -2.1245 
-123.75 3.7354 1.3383 
-125.63 3.443 -2.2627 
-125.82 3.4485 3.6026 
-131.85 3.8317 -2.3806 
-132.76 3.8148 -2.398 
-130.65 3.757 -2.3579 
-146.38 4.7345 3.3223 
-134.45 3.9832 -4.0192 
-134.47 3.9955 -2.4303 
-132.44 9.4437 7.137 
-134.04 4.0497 7.1463 
-132.66 4.9965 7.1443 
-137.63 4.1834 7.1471 
-151.72 5.0586 0.68667 
-153.14 4.687 -2.7857 
-128.69 3.636 -4.0771 
-133.94 3.9643 -4.0243 
-134.47 3.9955 -2.4303 
-123.33 12.49 -2.1906 
-123.34 12.491 5.2332 
-118.63 9.9701 -2.1084 
-123.76 3.544 7.1442 
-123.76 3.4818 7.1443 
-123.68 5.1679 7.1415 
-124.2 3.8918 7.1438 
-135.85 3.8764 7.1471 
-123.77 12.378 3.5926 
-127.63 3.5616 3.6041 
-130.41 3.7355 3.6063 
-130.39 3.7336 4.1246 
-127.49 3.552 4.5916 
-135.31 3.871 3.3313 
-135.35 3.8714 3.6105 
-123.73 3.8905 -4.1264 
-124.17 3.8854 -4.122 
-123.74 3.7367 -4.1264 
-123.75 3.5697 -4.1265 
-123.76 3.4551 3.6008 
-123.75 3.7345 5.193 
-132.76 3.9201 -4.0361 
-131.94 3.8313 3.6076 
-130.72 3.7631 -4.0566 
-129.73 3.8071 -4.0666 
-134.24 9.6362 3.6042 
-132.41 10.117 7.1358 
-132.72 3.7903 7.1463 
-134.99 9.4405 7.1377 
-123.74 12.382 -4.1177 
-123.33 12.49 -2.1906 
-123.34 12.491 3.5921 
-123.34 12.491 5.2332 
-123.44 10.075 -4.123 
-123.76 3.544 7.1442 
-123.76 3.5706 7.1442 
-127.14 3.5272 7.1452 
-123.68 5.1679 7.1415 
-136.46 4.114 3.6113 
-137.63 4.1834 7.1471 
-125.82 3.4485 3.6026 
-124.21 3.4536 3.6012 
-124.21 3.5037 5.1188 
-123.75 3.626 5.1925 
-130.72 3.7631 -4.0566 
-131.82 3.8318 -4.0456 
-132.41 10.117 7.1358 
-130.26 3.7228 7.1458 
-132.71 4.0003 7.146 
-131.71 3.9631 7.1458 
-134.54 3.99 7.1465 
-133.59 3.8229 3.609 
-136.32 4.1053 3.1691 
-123.74 12.382 -4.1177 
-123.33 12.49 -4.1217 
-123.75 12.381 -2.1989 
-123.75 12.381 -2.1989 
-123.86 10.074 -4.1189 
-123.86 10.074 -4.1189 
-124.21 3.7394 7.144 
-127.14 3.5272 7.1452 
-131.95 3.8312 3.8737 
-124.19 3.4477 -2.2351 
-124.19 3.4458 -4.1223 
-123.76 3.497 5.1919 
-123.73 3.8814 -4.1264 
-131.82 3.8318 -4.0456 
-133.51 9.8267 3.6034 
-131.99 3.831 7.1461 
-132.73 3.799 3.7472 
-123.74 12.382 -4.1177 
-124.22 3.5566 7.1443 
-123.76 3.4818 7.1443 
-132.72 3.7903 7.1463 
-134.54 3.99 7.1465 
-124.19 3.7405 1.8896 
-123.76 3.4551 3.6008 
-124.21 3.6845 7.1441 
-123.76 3.4818 7.1443 
-124.22 3.4879 7.1444 
-130.26 3.7228 7.1458 
-132.71 3.9878 7.146 
-132.71 3.9726 7.146 
-132.73 3.7994 3.6083 
-135.85 3.8764 7.1471 
-124.17 3.7418 -4.1221 
-124.22 3.5919 7.1443 
-132.3 3.9687 7.1459 
-132.71 3.876 7.1462 
-135.85 3.8764 7.1471 
-124.18 3.5755 -4.1222 
-132.72 3.8395 7.1463 
-124.18 3.6006 -4.1222 
-124.18 3.5833 -4.1222 
3 0 1 2
3 3 4 5
3 6 7 8
3 6 9 10
3 11 12 13
3 14 12 13
3 14 11 13
3 14 11 12
3 11 13 10
3 15 16 17
3 1 18 2
3 15 1 2
3 19 20 18
3 19 20 21
3 22 23 20
3 24 22 23
3 24 20 21
3 24 22 20
3 24 23 20
3 25 26 27
3 25 28 26
3 3 29 30
3 31 29 30
3 31 3 30
3 31 3 29
3 31 3 13
3 31 11 3
3 31 12 13
3 31 11 12
3 31 3 4
3 31 14 13
3 12 32 33
3 34 12 33
3 11 12 32
3 34 11 32
3 34 11 12
3 32 35 36
3 37 14 11
3 37 11 12
3 37 14 12
3 37 34 12
3 37 34 11
3 38 4 13
3 38 39 4
3 38 13 10
3 38 6 10
3 38 4 5
3 40 6 9
3 6 9 33
3 40 9 33
3 40 6 33
3 6 12 33
3 41 42 43
3 41 7 42
3 41 44 42
3 41 7 44
3 45 46 1
3 45 47 1
3 48 49 21
3 48 49 19
3 50 51 21
3 50 51 19
3 52 53 27
3 54 53 27
3 54 52 53
3 53 27 5
3 54 27 5
3 55 27 5
3 54 55 5
3 56 54 52
3 57 58 8
3 57 7 8
3 59 6 28
3 59 38 6
3 59 54 53
3 38 53 5
3 15 60 16
3 61 15 60
3 61 62 60
3 61 15 62
3 61 15 18
3 61 20 18
3 61 23 18
3 61 23 20
3 63 51 19
3 63 51 64
3 63 46 1
3 63 45 1
3 63 45 46
3 45 19 46
3 63 45 19
3 63 1 64
3 63 15 1
3 65 24 23
3 65 23 20
3 65 24 20
3 66 27 5
3 66 53 27
3 66 52 27
3 66 52 53
3 25 52 27
3 67 55 27
3 67 29 27
3 67 29 55
3 68 55 27
3 67 68 27
3 67 68 55
3 67 68 26
3 67 31 26
3 68 26 27
3 69 25 27
3 69 25 52
3 69 56 52
3 69 56 54
3 67 31 29
3 70 39 13
3 70 14 13
3 70 31 13
3 70 4 13
3 70 39 4
3 70 3 13
3 70 31 3
3 70 31 4
3 31 14 26
3 70 31 26
3 70 14 71
3 72 34 32
3 72 40 33
3 73 37 12
3 73 37 14
3 73 37 34
3 73 34 12
3 74 9 32
3 74 72 32
3 74 32 33
3 74 72 33
3 74 6 33
3 74 40 33
3 74 72 40
3 75 7 8
3 76 7 8
3 76 75 7
3 76 7 44
3 77 78 79
3 80 78 79
3 80 77 78
3 77 78 8
3 81 78 8
3 81 77 8
3 81 77 78
3 82 83 2
3 82 83 17
3 84 51 64
3 85 45 86
3 84 63 51
3 84 47 64
3 84 45 47
3 84 63 1
3 47 1 64
3 84 47 1
3 87 86 88
3 87 89 86
3 90 51 19
3 90 50 51
3 90 49 19
3 90 48 19
3 90 49 21
3 90 50 49
3 91 92 93
3 94 92 93
3 94 91 93
3 94 91 92
3 94 45 93
3 94 85 45
3 94 45 86
3 95 56 52
3 95 25 52
3 95 69 52
3 96 57 7
3 96 57 6
3 59 6 7
3 96 59 7
3 96 59 6
3 57 6 58
3 96 6 58
3 96 97 7
3 98 99 100
3 98 92 99
3 101 4 5
3 101 3 5
3 101 55 5
3 3 30 102
3 29 55 102
3 101 55 102
3 29 30 102
3 103 104 62
3 105 23 18
3 105 61 18
3 105 61 23
3 105 15 18
3 105 61 15
3 105 62 79
3 106 63 19
3 106 19 18
3 106 15 18
3 106 63 15
3 106 1 18
3 106 15 1
3 106 63 1
3 65 24 107
3 108 109 23
3 108 65 23
3 108 65 109
3 108 42 43
3 108 7 43
3 110 111 44
3 112 41 42
3 112 41 44
3 113 59 28
3 113 59 38
3 113 38 5
3 59 38 53
3 113 59 53
3 113 25 28
3 113 66 5
3 113 53 5
3 113 66 53
3 113 95 25
3 113 28 26
3 113 25 26
3 113 59 56
3 113 95 56
3 114 77 8
3 114 58 8
3 114 115 58
3 116 69 54
3 45 86 88
3 116 86 88
3 116 45 88
3 116 45 93
3 116 94 45
3 116 94 86
3 117 69 118
3 116 69 118
3 116 117 118
3 116 117 69
3 69 54 119
3 116 54 119
3 116 69 119
3 120 70 26
3 120 28 26
3 120 28 71
3 120 70 71
3 73 6 12
3 73 6 28
3 73 28 71
3 73 14 71
3 121 11 10
3 11 32 36
3 11 35 36
3 121 11 35
3 11 9 10
3 121 9 10
3 11 9 35
3 121 9 35
3 122 105 62
3 105 104 62
3 122 104 62
3 123 81 8
3 114 115 124
3 91 1 2
3 125 1 2
3 125 91 2
3 125 91 1
3 125 0 2
3 126 47 46
3 94 85 92
3 126 1 64
3 126 47 64
3 126 91 1
3 127 0 1
3 128 129 21
3 128 19 129
3 128 48 21
3 128 48 19
3 48 19 129
3 130 89 86
3 89 45 86
3 130 45 86
3 130 89 45
3 131 87 89
3 131 90 49
3 132 69 119
3 132 116 119
3 132 116 69
3 133 91 92
3 133 94 91
3 98 92 100
3 133 92 100
3 133 98 100
3 133 98 92
3 133 92 99
3 134 135 136
3 134 136 137
3 134 135 42
3 138 7 42
3 138 108 7
3 108 109 139
3 138 109 139
3 138 108 139
3 138 108 109
3 138 7 43
3 138 108 43
3 108 139 43
3 138 97 7
3 138 96 7
3 138 59 7
3 138 96 59
3 96 59 97
3 138 6 7
3 138 59 6
3 138 59 53
3 138 139 53
3 103 140 62
3 141 103 104
3 142 105 61
3 143 61 23
3 143 105 23
3 143 105 61
3 144 24 107
3 144 65 24
3 144 24 20
3 144 65 20
3 144 23 20
3 145 50 21
3 145 48 49
3 145 50 49
3 146 78 79
3 146 80 79
3 146 80 78
3 112 135 42
3 112 135 147
3 112 147 110
3 148 112 41
3 148 112 110
3 148 122 149
3 148 122 41
3 148 41 44
3 148 112 44
3 148 110 44
3 148 7 44
3 148 41 7
3 148 7 8
3 150 69 25
3 150 113 25
3 150 95 69
3 150 113 95
3 150 113 59
3 150 69 56
3 150 59 56
3 150 59 6
3 150 96 59
3 150 96 58
3 150 115 58
3 150 115 124
3 150 114 58
3 150 114 115
3 150 114 124
3 150 114 77
3 151 116 69
3 151 116 93
3 151 116 94
3 151 85 86
3 151 94 86
3 151 116 86
3 152 116 54
3 152 116 119
3 152 132 116
3 153 116 118
3 153 132 119
3 133 125 91
3 154 133 91
3 133 125 100
3 154 125 100
3 154 133 100
3 154 150 133
3 125 82 2
3 155 127 0
3 155 0 1
3 155 125 1
3 155 125 91
3 156 126 1
3 156 155 1
3 156 125 1
3 157 46 93
3 157 126 46
3 157 82 2
3 157 125 2
3 157 92 93
3 157 91 92
3 157 94 93
3 157 94 92
3 158 16 17
3 158 15 17
3 158 15 16
3 158 60 16
3 15 62 17
3 158 62 17
3 158 15 62
3 158 15 60
3 158 62 60
3 158 82 17
3 158 62 79
3 158 122 79
3 158 122 62
3 159 129 21
3 159 48 21
3 160 128 48
3 161 89 45
3 161 130 45
3 161 130 89
3 130 87 89
3 161 87 89
3 161 45 86
3 161 89 86
3 161 87 86
3 161 86 88
3 161 45 88
3 161 87 88
3 161 45 49
3 161 130 49
3 161 116 88
3 161 116 45
3 152 116 88
3 161 152 116
3 162 84 51
3 162 84 63
3 162 63 19
3 162 63 45
3 162 130 45
3 162 90 19
3 162 90 51
3 162 45 19
3 162 48 19
3 162 130 48
3 162 130 90
3 131 90 89
3 130 90 89
3 134 109 137
3 134 108 109
3 134 108 42
3 163 59 97
3 163 138 139
3 163 59 53
3 139 54 53
3 163 54 53
3 163 139 54
3 163 59 54
3 164 54 119
3 163 164 54
3 165 108 109
3 166 144 107
3 166 144 65
3 165 108 107
3 166 108 107
3 166 165 107
3 166 165 108
3 166 108 109
3 166 109 23
3 166 65 109
3 166 144 23
3 166 109 167
3 168 145 21
3 168 145 48
3 168 159 48
3 169 148 149
3 169 77 149
3 148 77 149
3 169 148 77
3 170 77 149
3 170 148 77
3 170 77 79
3 170 80 79
3 170 80 77
3 170 146 79
3 170 146 80
3 170 169 77
3 171 150 69
3 171 154 150
3 171 94 92
3 171 133 92
3 171 133 94
3 171 150 133
3 171 154 133
3 171 133 100
3 171 150 100
3 171 85 92
3 171 151 85
3 171 92 100
3 171 98 92
3 172 116 88
3 172 152 116
3 172 161 88
3 173 117 118
3 173 116 117
3 152 116 117
3 173 152 117
3 172 116 118
3 173 172 118
3 173 172 116
3 173 172 152
3 172 174 118
3 173 174 118
3 172 152 174
3 173 152 174
3 175 116 117
3 175 152 117
3 175 152 116
3 175 132 116
3 175 117 69
3 175 116 69
3 175 132 69
3 175 153 132
3 175 69 118
3 175 117 118
3 175 153 118
3 109 139 137
3 176 109 137
3 176 134 137
3 176 138 139
3 176 108 109
3 176 134 108
3 176 138 108
3 176 108 42
3 176 134 42
3 176 138 42
3 176 138 7
3 176 44 42
3 176 7 42
3 176 7 44
3 176 111 44
3 177 163 97
3 177 163 138
3 177 163 59
3 178 150 114
3 178 150 77
3 125 179 82
3 180 133 99
3 180 99 100
3 180 133 100
3 180 181 100
3 180 133 125
3 180 154 100
3 180 154 125
3 181 154 100
3 154 125 179
3 180 125 179
3 180 154 179
3 182 158 60
3 182 62 60
3 182 158 62
3 182 122 62
3 182 158 122
3 182 122 149
3 182 122 79
3 182 79 149
3 182 170 149
3 182 77 149
3 182 183 77
3 182 170 77
3 182 77 79
3 184 130 49
3 184 161 130
3 184 130 87
3 184 161 87
3 184 87 89
3 184 130 89
3 161 48 49
3 184 48 49
3 184 161 48
3 184 131 87
3 184 90 49
3 184 130 90
3 184 90 89
3 161 160 48
3 184 160 48
3 184 161 160
3 184 131 49
3 184 131 90
3 185 172 137
3 185 172 161
3 185 109 137
3 185 109 167
3 186 135 136
3 186 135 147
3 187 65 109
3 187 108 109
3 187 166 109
3 187 166 65
3 187 166 108
3 187 65 107
3 187 166 107
3 187 108 107
3 187 65 23
3 187 108 23
3 187 188 23
3 108 23 43
3 187 23 43
3 187 108 43
3 187 188 43
3 189 168 21
3 189 168 159
3 189 166 167
3 189 166 144
3 190 141 103
3 190 103 140
3 190 140 62
3 190 103 62
3 140 62 60
3 190 62 60
3 190 105 61
3 190 142 61
3 190 142 141
3 190 61 60
3 190 61 62
3 140 61 60
3 190 140 61
3 105 15 62
3 190 15 62
3 190 105 62
3 190 105 15
3 191 7 8
3 191 148 7
3 191 76 7
3 191 7 44
3 191 148 44
3 191 76 44
3 191 110 44
3 191 148 110
3 192 171 100
3 192 171 150
3 192 98 100
3 192 171 98
3 192 150 69
3 192 171 69
3 178 77 100
3 192 77 100
3 192 178 77
3 192 150 77
3 172 136 137
3 193 152 174
3 193 172 174
3 193 173 174
3 193 173 152
3 194 134 137
3 194 134 136
3 194 135 136
3 194 186 135
3 194 186 147
3 194 135 147
3 195 77 100
3 195 183 77
3 195 182 77
3 195 182 79
3 195 182 158
3 195 158 79
3 195 158 78
3 195 158 82
3 178 154 179
3 178 179 82
3 195 178 82
3 196 197 128
3 197 160 128
3 196 160 128
3 196 197 160
3 198 172 137
3 198 185 137
3 198 136 137
3 198 172 136
3 198 194 137
3 198 194 136
3 198 176 137
3 198 194 176
3 198 186 136
3 198 194 186
3 193 186 136
3 198 193 136
3 198 193 186
3 198 199 176
3 198 175 152
3 198 199 175
3 200 166 107
3 200 166 165
3 200 108 107
3 200 165 108
3 201 189 21
3 189 144 21
3 201 24 21
3 201 24 107
3 202 184 87
3 202 161 87
3 202 184 161
3 196 161 87
3 202 196 87
3 202 196 161
3 202 184 48
3 202 161 160
3 202 184 160
3 202 196 160
3 202 160 48
3 203 166 144
3 203 189 166
3 203 144 21
3 203 159 129
3 203 144 24
3 203 159 21
3 203 189 159
3 204 189 167
3 204 189 166
3 204 109 167
3 204 166 109
3 204 203 166
3 204 203 189
3 204 185 167
3 204 185 109
3 203 166 109
3 204 203 109
3 204 161 87
3 204 185 161
3 204 196 87
3 204 196 161
3 204 197 129
3 204 203 129
3 204 196 160
3 161 197 160
3 204 197 160
3 204 196 197
3 205 193 172
3 205 172 136
3 205 198 136
3 205 193 136
3 206 152 117
3 206 173 117
3 206 173 152
3 206 207 117
3 208 134 42
3 208 176 42
3 208 194 134
3 208 194 176
3 208 135 42
3 208 194 135
3 208 44 42
3 208 176 44
3 208 112 42
3 208 112 135
3 208 112 44
3 208 112 147
3 208 194 147
3 208 176 111
3 208 110 44
3 208 112 110
3 208 147 110
3 208 110 111
3 209 199 176
3 209 198 176
3 209 176 139
3 209 176 137
3 209 175 132
3 209 199 175
3 209 139 137
3 209 185 137
3 209 109 139
3 209 185 109
3 209 108 109
3 209 139 53
3 209 139 54
3 209 139 5
3 209 55 5
3 210 142 105
3 210 142 141
3 210 190 105
3 210 190 142
3 210 190 141
3 190 105 103
3 210 105 103
3 210 190 103
3 210 103 104
3 210 141 104
3 211 196 87
3 211 202 87
3 211 202 160
3 211 196 160
3 211 160 128
3 211 196 128
3 212 206 207
3 212 193 152
3 212 173 152
3 212 193 173
3 212 206 152
3 212 206 173
3 212 174 118
3 212 173 118
3 212 173 174
3 212 193 174
3 213 152 117
3 213 206 117
3 213 207 117
3 213 206 207
3 213 212 152
3 213 212 206
3 213 212 207
3 214 209 139
3 214 163 139
3 214 139 54
3 214 163 54
3 214 163 164
3 215 105 103
3 215 210 105
3 215 103 104
3 215 210 104
3 215 190 103
3 215 190 105
3 105 104 23
3 215 104 23
3 215 105 23
3 215 188 23
3 215 188 104
3 215 104 62
3 215 190 62
3 215 105 62
3 215 143 23
3 215 143 105
3 216 152 117
3 216 213 117
3 216 213 152
3 216 212 152
3 216 213 212
3 217 210 105
3 217 215 105
3 217 215 210
3 217 210 104
3 217 215 104
3 218 143 105
3 218 215 105
3 218 215 143
3 218 217 105
3 218 217 215
