ply
format ascii 1.0
element vertex 359
property float x
property float y
property float z
property float normal_x
property float normal_y
property float normal_z
element range_grid 399
property list uchar int vertex_indices
end_header
-123.739998 3.736720 -4.126440 -0.329044 0.943938 0.026679 
-151.298996 5.168050 -3.849570 0.000000 0.000000 0.000000 
-123.748001 3.584480 -4.126530 0.865652 -0.500602 0.006710 
-124.179001 3.600570 -4.122200 0.766097 -0.052785 0.640554 
-123.672997 5.168200 -4.125670 0.006580 -0.896243 0.443515 
-143.240005 4.794590 -3.930480 -0.694059 0.645524 0.318717 
-151.830002 4.630590 -3.844800 0.000000 0.000000 0.000000 
-124.101997 5.160020 -4.121400 -0.997319 -0.048414 0.054869 
-134.449997 3.983170 -4.019160 0.000000 0.000000 0.000000 
-124.171997 3.741810 -4.122120 -0.782806 -0.612439 0.110151 
-123.733002 3.890540 -4.126360 0.997034 -0.046349 0.061439 
-123.734001 3.881350 -4.126370 0.000000 0.000000 0.000000 
-123.484001 3.878980 -4.128870 0.000000 0.000000 0.000000 
-134.207993 3.980870 -4.021580 -0.000995 -0.999821 0.018902 
-129.725006 3.807140 -4.066560 0.716376 -0.689788 0.104871 
-132.757996 3.890200 -4.036170 0.705546 0.702613 0.092410 
-128.692001 3.636040 -4.077060 0.000000 0.000000 0.000000 
-131.824005 3.831840 -4.045560 0.000000 0.000000 0.000000 
-133.942993 3.964260 -4.024250 -0.612635 -0.783056 0.107248 
-132.755997 3.920070 -4.036150 -0.996733 0.039956 0.070192 
-124.165001 3.885450 -4.122050 -0.528508 0.844758 0.084048 
-132.753998 3.967050 -4.036130 -0.111275 -0.939801 0.323098 
-124.164001 3.910500 -4.122040 0.997783 -0.050156 0.043753 
-132.737000 4.307840 -4.035950 -0.626010 -0.764788 0.152354 
-125.575996 3.441300 -4.108400 0.000000 0.000000 0.000000 
-123.328003 12.489700 -4.121710 0.073985 -0.244526 0.966816 
-123.442001 10.075200 -4.123020 0.000000 0.000000 0.000000 
-123.748001 3.569740 -4.126540 0.000000 0.000000 0.000000 
-124.186996 3.445780 -4.122270 0.000000 0.000000 0.000000 
-123.753998 3.447170 -4.126600 0.000000 0.000000 0.000000 
-124.181000 3.575540 -4.122210 -0.931395 0.027128 0.362999 
-124.180000 3.583350 -4.122200 -0.996475 0.037951 0.074817 
-130.723999 3.763100 -4.056620 0.283080 -0.935696 0.210567 
-123.748001 3.571480 -4.126530 0.000000 0.000000 0.000000 
-118.705002 3.833580 -4.176670 0.536675 -0.843735 0.009511 
-118.681000 5.263520 -4.175470 0.000000 0.000000 0.000000 
-118.598000 10.083800 -4.171420 0.000000 0.000000 0.000000 
-146.294006 4.736290 -3.900020 0.355120 -0.923313 0.146226 
-153.162003 4.680220 -3.831440 0.000000 0.000000 0.000000 
-151.664993 5.072020 -3.846000 -0.018978 -0.002996 0.999815 
-123.856003 10.074400 -4.118880 0.000000 0.000000 0.000000 
-123.740997 12.381700 -4.117690 0.656466 -0.747519 0.101334 
-124.101997 5.160020 -4.121400 0.000000 0.000000 0.000000 
-123.734001 3.881350 -4.126370 0.196484 0.980066 0.029414 
-118.598000 10.083800 -4.171420 0.000000 0.000000 0.000000 
-151.664993 5.072020 -3.846000 0.000000 0.000000 0.000000 
-124.164001 3.910500 -4.122040 0.000000 0.000000 0.000000 
-124.172997 3.857100 -2.233470 0.998102 -0.045609 0.041367 
-151.998993 4.987710 3.623970 0.000000 0.000000 0.000000 
-125.580002 3.756410 3.602130 0.000000 0.000000 0.000000 
-146.513000 4.732040 3.619440 -0.345980 0.918342 0.192211 
-143.240005 4.794590 -3.930480 0.000000 0.000000 0.000000 
-124.167999 3.885950 -3.253610 0.999291 -0.037537 0.003044 
-129.531006 3.940540 3.605400 -0.239894 -0.908688 0.341667 
-145.871002 4.702120 3.618900 0.000000 0.000000 0.000000 
-132.737000 4.307840 -4.035950 0.000000 0.000000 0.000000 
-132.718002 4.089090 3.608030 -0.583960 0.811440 0.023580 
-133.585999 4.129520 3.608750 0.000000 0.000000 0.000000 
-146.384003 4.734500 3.322260 0.398582 -0.917125 0.003870 
-124.193001 3.740520 1.889590 0.000000 0.000000 0.000000 
-145.664993 4.748250 1.662730 -0.431952 0.387322 0.814493 
-132.733002 4.260920 -2.396200 0.046460 0.991534 0.121250 
-124.954002 3.893950 -2.248320 -0.518657 -0.840786 0.155154 
-143.813995 4.783630 -2.606850 0.840934 -0.402458 0.361743 
-151.298996 5.168050 -3.849570 0.137621 -0.921642 0.362818 
-151.401001 5.141540 -2.751080 0.000000 0.000000 0.000000 
-150.641006 5.003120 0.861134 -0.085213 0.994886 0.054226 
-151.682999 5.068930 0.258165 0.707090 -0.707090 0.006946 
-151.723007 5.058590 0.686672 0.401245 -0.915050 0.041051 
-123.740997 12.381700 -4.117690 0.000000 0.000000 0.000000 
-150.393997 4.657900 7.149930 0.000000 0.000000 0.000000 
-128.451004 3.789300 7.145140 -0.295312 -0.516401 0.803817 
-137.630997 4.183360 7.147090 0.723143 -0.110911 0.681736 
-134.537994 3.989980 7.146530 0.000000 0.000000 0.000000 
-132.716003 3.839500 7.146260 0.000000 0.000000 0.000000 
-127.135002 3.527220 7.145200 0.000000 0.000000 0.000000 
-139.768997 4.317010 7.147480 -0.344964 0.902778 0.256888 
-132.714996 3.876000 7.146200 0.000000 0.000000 0.000000 
-132.710007 3.972620 7.146040 -0.998481 0.047247 0.028348 
-132.298996 3.968720 7.145930 -0.991734 0.048626 0.118737 
-132.709000 3.987840 7.146020 -0.996550 0.072654 0.040122 
-135.850998 3.876400 7.147090 0.000000 0.000000 0.000000 
-123.761002 3.544000 7.144210 -0.993174 0.066512 0.095823 
-124.223000 3.487940 7.144430 -0.568190 -0.822562 0.023502 
-123.764000 3.481750 7.144310 0.000000 0.000000 0.000000 
-123.760002 3.570570 7.144170 0.000000 0.000000 0.000000 
-124.220001 3.556610 7.144320 0.920873 -0.046242 0.387110 
-131.994995 3.831010 7.146070 0.169280 -0.983717 0.060373 
-130.263000 3.722770 7.145760 0.000000 0.000000 0.000000 
-132.718994 3.790270 7.146350 0.000000 0.000000 0.000000 
-152.906998 4.751310 7.150490 0.000000 0.000000 0.000000 
-150.393997 4.657900 7.149930 -0.122937 -0.977288 0.172609 
-123.764000 3.481750 7.144310 -0.777316 -0.627778 0.040911 
-123.754997 3.667460 7.144010 0.000000 0.000000 0.000000 
-123.748001 3.584480 -4.126530 0.000000 0.000000 0.000000 
-123.739998 3.736720 -4.126440 0.000000 0.000000 0.000000 
-123.746002 3.735400 1.338310 0.999213 -0.039643 0.001016 
-123.734001 3.881350 -4.126370 0.000000 0.000000 0.000000 
-123.734001 3.881530 -3.808910 0.000000 0.000000 0.000000 
-123.752998 3.647510 4.434250 0.997710 -0.067624 0.001040 
-123.764000 3.481750 7.144310 0.000000 0.000000 0.000000 
-123.761002 3.496990 5.191870 0.000000 0.000000 0.000000 
-123.762001 3.455100 3.600830 -0.006910 -0.999972 0.002961 
-123.748001 3.569740 -4.126540 0.991547 -0.051111 0.119258 
-123.748001 3.571480 -4.126530 0.999780 0.000997 0.020933 
-123.752998 3.641370 3.600650 0.998623 -0.052451 0.001028 
-123.757004 3.552640 3.600730 0.998128 -0.061152 0.001036 
-123.754997 3.625980 5.192460 -0.973262 0.065212 0.220245 
-123.759003 3.548760 5.192110 0.999131 -0.041673 0.001016 
-123.761002 3.544000 7.144210 0.000000 0.000000 0.000000 
-123.750000 3.566850 -2.226270 0.998840 -0.048149 0.001024 
-123.759003 3.509410 3.600780 0.000000 0.000000 0.000000 
-123.749001 3.598470 -2.226150 0.845309 -0.534235 0.006762 
-123.741997 3.736260 -2.225590 0.999213 -0.039643 0.001016 
-123.737999 3.836570 -2.225190 0.997090 -0.042039 0.063598 
-123.750999 3.554910 -2.226320 0.998840 -0.048149 0.001024 
-123.753998 3.447170 -4.126600 0.000000 0.000000 0.000000 
-123.755997 3.449120 -2.226740 0.056668 -0.998393 0.001030 
-123.736000 3.882390 -2.225010 0.000000 0.000000 0.000000 
-123.338997 12.491200 7.129370 0.254023 -0.967197 0.001193 
-123.330002 12.490000 -2.190600 0.000000 0.000000 0.000000 
-124.186996 3.445780 -4.122270 -0.019015 -0.999807 0.005004 
-123.754997 3.667460 7.144010 -0.952933 -0.299927 0.044293 
-123.734001 3.881530 -3.808910 0.994066 -0.108776 0.001077 
-123.753998 3.447170 -4.126600 0.124655 -0.973318 0.192649 
-129.531006 3.940540 3.605400 0.000000 0.000000 0.000000 
-151.998993 4.987710 3.623970 0.000000 0.000000 0.000000 
-132.718002 4.089090 3.608030 0.000000 0.000000 0.000000 
-146.513000 4.732040 3.619440 0.000000 0.000000 0.000000 
-133.585999 4.129520 3.608750 0.925729 -0.357949 0.122059 
-145.871002 4.702120 3.618900 0.042788 0.998743 0.026090 
-123.762001 3.455100 3.600830 0.000000 0.000000 0.000000 
-124.212997 3.453640 3.601220 -0.409189 -0.910948 0.052323 
-127.626999 3.561560 3.604090 0.000000 0.000000 0.000000 
-125.817001 3.448450 3.602620 0.069330 -0.997292 0.024532 
-123.759003 3.509410 3.600780 0.999036 -0.043880 0.001020 
-124.209999 3.515490 3.601160 0.999120 -0.041843 0.003062 
-125.580002 3.756410 3.602130 0.607436 -0.791246 0.070365 
-124.197998 3.740150 3.600940 0.998382 -0.056785 0.003097 
-123.335999 12.490700 3.592070 0.000000 0.000000 0.000000 
-151.682999 5.068930 0.258165 0.000000 0.000000 0.000000 
-132.425003 10.111500 3.602190 0.231694 -0.964312 0.128143 
-123.759003 3.509410 3.600780 0.000000 0.000000 0.000000 
-127.626999 3.561560 3.604090 -0.003026 0.999507 0.031266 
-124.197998 3.740150 3.600940 0.000000 0.000000 0.000000 
-124.212997 3.453640 3.601220 0.000000 0.000000 0.000000 
-123.778999 12.376100 7.129680 0.279052 -0.941628 0.188326 
-124.209999 3.515490 3.601160 0.000000 0.000000 0.000000 
-124.223000 3.487940 7.144430 0.000000 0.000000 0.000000 
-123.762001 3.455100 3.600830 0.000000 0.000000 0.000000 
-123.903000 9.649360 3.595200 0.073554 0.995718 0.055989 
-124.193001 3.740520 1.889590 0.998730 -0.050296 0.003079 
-124.218002 3.591930 7.144260 0.979152 -0.066404 0.191967 
-123.760002 3.570570 7.144170 0.041534 0.997883 0.050054 
-152.328995 4.902620 7.150080 0.367831 -0.929325 0.032494 
-152.906998 4.751310 7.150490 0.133523 -0.990766 0.023563 
-123.751999 3.733990 7.143900 0.000000 0.000000 0.000000 
-133.942993 3.964260 -4.024250 0.000000 0.000000 0.000000 
-134.468994 3.995520 -2.430270 0.362201 -0.926530 0.101742 
-152.988998 4.728490 3.625070 -0.037689 -0.999264 0.007130 
-137.630997 4.183360 7.147090 0.000000 0.000000 0.000000 
-134.035004 4.049650 7.146290 -0.737952 -0.663412 0.123737 
-124.212997 3.684490 7.144110 0.996733 -0.046536 0.066016 
-123.750999 3.671170 3.600620 0.980656 0.194732 0.019823 
-123.751999 3.733990 7.143900 -0.297200 0.954300 0.031350 
-123.745003 3.887490 7.143640 -0.439229 0.745208 0.501740 
-124.164001 3.910500 -4.122040 0.000000 0.000000 0.000000 
-131.824005 3.831840 -4.045560 -0.040129 -0.999105 0.013376 
-124.193001 3.740520 1.889590 0.000000 0.000000 0.000000 
-131.994995 3.831010 7.146070 0.000000 0.000000 0.000000 
-131.945007 3.831250 3.873690 0.168242 -0.985740 0.003387 
-135.850998 3.876400 7.147090 0.000000 0.000000 0.000000 
-134.503006 3.862960 -2.431320 0.295955 0.953916 0.049538 
-125.580002 3.756410 3.602130 0.000000 0.000000 0.000000 
-123.856003 10.074400 -4.118880 0.295131 -0.925314 0.238101 
-124.209999 3.739390 7.144020 0.469829 -0.003970 0.882749 
-123.736000 3.882390 -2.225010 0.000000 0.000000 0.000000 
-118.705002 3.833580 -4.176670 0.000000 0.000000 0.000000 
-152.906998 4.751310 7.150490 0.000000 0.000000 0.000000 
-124.191002 3.889830 3.600800 0.000000 0.000000 0.000000 
-124.127998 5.159460 3.599570 0.000000 0.000000 0.000000 
-123.683998 5.167890 7.141520 -0.989567 -0.134471 0.051720 
-123.482002 9.454870 7.134410 0.000000 0.000000 0.000000 
-124.197998 3.740150 3.600940 0.000000 0.000000 0.000000 
-134.233994 3.981590 -3.140770 0.000000 0.000000 0.000000 
-124.191002 3.889830 3.600800 0.998724 -0.050399 0.003086 
-124.172997 3.857100 -2.233470 0.000000 0.000000 0.000000 
-123.745003 3.887490 7.143640 0.000000 0.000000 0.000000 
-123.683998 5.167890 7.141520 0.000000 0.000000 0.000000 
-134.449997 3.983170 -4.019160 -0.976799 0.214077 0.005849 
-134.537994 3.989980 7.146530 0.566275 -0.821738 0.063866 
-124.203003 3.891840 7.143760 0.915380 -0.046500 0.399897 
-126.375000 3.764870 7.144590 0.203332 -0.551901 0.808741 
-153.162003 4.680220 -3.831440 0.000000 0.000000 0.000000 
-148.042999 4.702790 7.149190 0.034856 0.998159 0.049644 
-151.401001 5.141540 -2.751080 -0.462599 -0.864213 0.197832 
-131.850006 3.831720 -2.380600 0.000000 0.000000 0.000000 
-125.575996 3.441300 -4.108400 0.000000 0.000000 0.000000 
-125.817001 3.448450 3.602620 0.000000 0.000000 0.000000 
-151.712997 5.063730 7.149640 0.000000 0.000000 0.000000 
-127.135002 3.527220 7.145200 -0.017914 -0.997905 0.062171 
-130.263000 3.722770 7.145760 0.812326 -0.574005 0.103176 
-130.388000 3.733650 4.124610 0.000000 0.000000 0.000000 
-131.850006 3.831720 -2.380600 0.000000 0.000000 0.000000 
-131.945007 3.831250 3.873690 0.000000 0.000000 0.000000 
-150.854996 4.649140 3.623290 -0.103480 -0.994497 0.016339 
-137.630997 4.183360 7.147090 0.000000 0.000000 0.000000 
-133.942993 3.964260 -4.024250 0.000000 0.000000 0.000000 
-134.233994 3.981590 -3.140770 0.231079 -0.972900 0.008295 
-136.464005 4.114010 3.611270 0.000000 0.000000 0.000000 
-132.757996 3.890200 -4.036170 0.000000 0.000000 0.000000 
-133.513000 9.826670 3.603400 0.252415 -0.966141 0.053467 
-132.410995 10.116600 7.135850 0.688657 -0.308041 0.656401 
-132.753998 3.842370 -2.397890 -0.998613 0.052559 0.003092 
-132.714996 3.876000 7.146200 -0.994511 0.045457 0.094240 
-131.707001 3.963100 7.145770 0.922371 -0.365364 0.125464 
-132.707993 4.000340 7.146000 -0.602723 0.797599 0.023664 
-124.139000 5.159200 7.141660 0.838476 -0.463409 0.286725 
-131.994995 3.831010 7.146070 0.000000 0.000000 0.000000 
-132.718994 3.790270 7.146350 0.053100 0.998497 0.013535 
-123.766998 12.377900 3.592550 0.254023 -0.967197 0.001193 
-123.772003 12.377100 5.163530 0.991705 0.128493 0.003295 
-123.336998 12.490900 5.233180 0.000000 0.000000 0.000000 
-124.214996 3.503690 5.118750 0.999288 -0.037613 0.003050 
-123.761002 3.496990 5.191870 0.998844 -0.048051 0.001022 
-123.748001 3.734850 3.600560 0.999131 -0.041673 0.001016 
-123.750000 3.734470 5.192960 0.999127 -0.041758 0.001018 
-123.753998 3.653090 5.192590 0.998623 -0.052451 0.001028 
-134.429001 3.986980 3.473350 -0.477058 0.873427 0.097677 
-134.432999 3.987090 3.609620 -0.441440 -0.897290 0.001310 
-133.587997 3.934240 3.608930 0.829767 -0.043232 0.556432 
-151.697998 5.066390 3.623640 0.000000 0.000000 0.000000 
-131.940994 3.831270 3.607590 0.168242 -0.985740 0.003387 
-132.423996 10.111800 3.777810 -0.998831 0.048248 0.003080 
-127.489998 3.551980 4.591620 0.000000 0.000000 0.000000 
-130.408997 3.735510 3.606350 -0.041842 0.999111 0.005103 
-131.940994 3.831270 3.607590 0.000000 0.000000 0.000000 
-136.464005 4.114010 3.611270 0.939188 -0.143127 0.312154 
-153.061996 4.708080 0.472259 0.000000 0.000000 0.000000 
-151.998993 4.987710 3.623970 0.519514 -0.853977 0.028786 
-151.723007 5.058590 0.686672 0.000000 0.000000 0.000000 
-123.740997 3.885560 3.600410 0.991465 -0.130369 0.001096 
-123.742996 3.886430 5.193660 0.998940 -0.046011 0.001022 
-135.352997 3.871440 3.610530 0.000000 0.000000 0.000000 
-132.727997 3.880320 3.747560 -0.998375 0.056902 0.003104 
-134.468994 3.995520 -2.430270 0.000000 0.000000 0.000000 
-132.731995 3.799380 3.608310 -0.998613 0.052559 0.003092 
-132.731995 3.799020 3.747170 0.027126 0.999627 0.003014 
-132.729996 3.840560 3.608270 -0.999028 0.043970 0.003068 
-132.729996 3.840520 3.747370 -0.999028 0.043970 0.003068 
-133.589005 3.822940 3.609040 0.021100 0.999753 0.007033 
-146.388000 4.734430 3.619320 0.398582 -0.917125 0.003870 
-127.135002 3.527220 7.145200 0.000000 0.000000 0.000000 
-127.489998 3.551980 4.591620 0.004945 0.999948 0.008902 
-128.692001 3.636040 -4.077060 -0.365364 -0.922371 0.125464 
-123.675003 5.168150 -2.219870 0.999575 0.029133 0.001005 
-123.328003 12.489700 -4.121710 0.000000 0.000000 0.000000 
-123.740997 12.381700 -4.117690 0.000000 0.000000 0.000000 
-118.681000 5.263520 -4.175470 0.999738 -0.017150 0.015132 
-124.127998 5.159460 3.599570 0.998730 -0.050296 0.003079 
-132.673996 4.996280 3.607150 -0.867150 -0.443343 0.226932 
-123.681999 5.167940 5.199550 0.998940 -0.046011 0.001022 
-123.474998 9.560380 5.219720 -0.001030 0.998507 0.054614 
-123.482002 9.454870 7.134410 0.459918 -0.657265 0.597058 
-123.338997 12.491200 7.129370 0.000000 0.000000 0.000000 
-118.598000 10.083800 -4.171420 0.536965 0.523499 0.661527 
-132.660004 4.996510 7.144340 -0.332784 -0.725631 0.602258 
-134.240997 9.636160 3.604210 0.922901 -0.011585 0.384864 
-134.992996 9.440550 7.137690 0.145561 -0.883455 0.445331 
-133.574997 4.979080 3.607950 0.182453 -0.380708 0.906517 
-125.817001 3.448450 3.602620 0.000000 0.000000 0.000000 
-125.575996 3.441300 -4.108400 0.003109 -0.998124 0.061152 
-130.654007 3.756980 -2.357940 -0.041842 0.999111 0.005103 
-130.723999 3.763100 -4.056620 0.000000 0.000000 0.000000 
-130.408997 3.735510 3.606350 0.000000 0.000000 0.000000 
-132.716003 3.839500 7.146260 -0.995468 0.047298 0.082497 
-135.313995 3.871040 3.331310 -0.307922 0.947352 0.087791 
-133.589005 3.850670 3.609010 0.010858 0.000987 0.999941 
-135.850998 3.876400 7.147090 -0.045702 -0.998004 0.043576 
-130.388000 3.733650 4.124610 -0.041842 0.999111 0.005103 
-135.352997 3.871440 3.610530 0.077244 0.985156 0.153299 
-130.263000 3.722770 7.145760 0.000000 0.000000 0.000000 
-132.755005 3.814830 -2.398000 0.021185 0.999714 0.011097 
-123.484001 3.878980 -4.128870 -0.292617 0.006122 0.956210 
-123.448997 9.969260 -2.200680 0.000000 0.000000 0.000000 
-118.630997 9.970090 -2.108390 0.677430 0.677430 0.286667 
-118.737000 3.834980 -2.129410 -0.001379 -0.740750 0.671779 
-118.711998 5.262900 -2.124510 0.000000 0.000000 0.000000 
-118.630997 9.970090 -2.108390 0.000000 0.000000 0.000000 
-118.705002 3.833580 -4.176670 0.000000 0.000000 0.000000 
-123.442001 10.075200 -4.123020 0.000000 0.000000 0.000000 
-123.328003 12.489700 -4.121710 0.000000 0.000000 0.000000 
-132.727997 3.880490 3.608230 -0.998724 0.050399 0.003086 
-132.751007 3.888120 -2.397700 -0.997978 0.063479 0.003122 
-134.255005 3.982170 -2.426220 0.269687 -0.962817 0.015864 
-151.298996 5.168050 -3.849570 0.000000 0.000000 0.000000 
-130.654007 3.756980 -2.357940 0.000000 0.000000 0.000000 
-132.755005 3.814830 -2.398000 0.000000 0.000000 0.000000 
-123.736000 3.882390 -2.225010 0.997991 -0.063348 0.001038 
-124.171997 3.886530 -2.233350 0.998831 -0.048248 0.003080 
-124.108002 5.159880 -2.228190 0.998730 -0.050296 0.003079 
-125.634003 3.443010 -2.262730 0.792812 -0.608891 0.026474 
-124.193001 3.447700 -2.235130 0.997978 -0.063479 0.003122 
-123.747002 12.380700 -2.198930 0.991705 0.128493 0.003295 
-123.755997 3.449120 -2.226740 0.000000 0.000000 0.000000 
-136.317993 4.105340 3.169080 0.000000 0.000000 0.000000 
-151.669998 5.071200 -2.756450 0.870606 -0.491965 0.004000 
-153.138000 4.686980 -2.785750 -0.037689 -0.999264 0.007130 
-124.167999 3.885950 -3.253610 0.000000 0.000000 0.000000 
-130.654007 3.756980 -2.357940 0.000000 0.000000 0.000000 
-127.626999 3.561560 3.604090 0.000000 0.000000 0.000000 
-128.447006 3.618970 -2.316090 -0.142630 0.986620 0.078977 
-135.313995 3.871040 3.331310 0.000000 0.000000 0.000000 
-118.737000 3.834980 -2.129410 0.000000 0.000000 0.000000 
-118.711998 5.262900 -2.124510 0.496178 -0.610552 0.617279 
-123.442001 10.075200 -4.123020 0.736983 0.529243 0.420426 
-123.681000 5.167990 3.599170 0.998393 0.056668 0.001030 
-151.688004 4.633290 -2.758150 -0.066371 -0.997670 0.015803 
-118.630997 9.970090 -2.108390 0.000000 0.000000 0.000000 
-123.675003 5.168150 -2.219870 0.000000 0.000000 0.000000 
-132.753998 3.842370 -2.397890 0.000000 0.000000 0.000000 
-136.317993 4.105340 3.169080 0.225568 -0.356544 0.906640 
-131.850006 3.831720 -2.380600 0.417840 0.908175 0.025044 
-134.503006 3.862960 -2.431320 0.000000 0.000000 0.000000 
-134.503006 3.862960 -2.431320 0.000000 0.000000 0.000000 
-125.634003 3.443010 -2.262730 0.000000 0.000000 0.000000 
-118.737000 3.834980 -2.129410 0.000000 0.000000 0.000000 
-123.448997 9.969260 -2.200680 -0.001030 0.998507 0.054614 
-146.432007 4.733560 7.148680 0.012431 -0.614658 0.788696 
-152.328995 4.902620 7.150080 0.000000 0.000000 0.000000 
-132.447998 9.638450 3.602650 -0.705227 0.689995 0.162979 
-123.766998 12.377900 3.592550 0.000000 0.000000 0.000000 
-152.988998 4.728490 3.625070 0.000000 0.000000 0.000000 
-151.227997 4.642040 0.767707 -0.086850 -0.996092 0.016083 
-153.138000 4.686980 -2.785750 0.000000 0.000000 0.000000 
-151.830002 4.630590 -3.844800 0.147730 -0.988305 0.037792 
-132.442993 9.443720 7.136970 -0.420372 -0.141074 0.896318 
-151.712997 5.063730 7.149640 0.254023 -0.967197 0.001193 
-151.697998 5.066390 3.623640 0.254023 -0.967197 0.001193 
-132.425003 10.111500 3.602190 0.000000 0.000000 0.000000 
-123.925003 9.454320 7.134530 0.512807 0.255629 0.819562 
-132.410995 10.116600 7.135850 0.000000 0.000000 0.000000 
-123.470001 9.649910 3.594830 -0.001030 0.998507 0.054614 
-123.336998 12.490900 5.233180 0.106647 -0.994296 0.001077 
-123.903000 9.649360 3.595200 0.000000 0.000000 0.000000 
-153.061996 4.708080 0.472259 -0.037689 -0.999264 0.007130 
-133.514999 9.637090 3.603580 -0.859571 0.208517 0.466539 
-133.513000 9.826670 3.603400 0.000000 0.000000 0.000000 
-123.448997 9.969260 -2.200680 0.000000 0.000000 0.000000 
-123.335999 12.490700 3.592070 0.254023 -0.967197 0.001193 
-123.867996 9.969180 -2.208700 0.071214 0.995895 0.055875 
-123.766998 12.377900 3.592550 0.000000 0.000000 0.000000 
-123.338997 12.491200 7.129370 0.000000 0.000000 0.000000 
-123.778999 12.376100 7.129680 0.000000 0.000000 0.000000 
-134.992996 9.440550 7.137690 0.000000 0.000000 0.000000 
-134.240997 9.636160 3.604210 0.000000 0.000000 0.000000 
-153.162003 4.680220 -3.831440 0.038072 0.999122 0.017492 
-123.330002 12.490000 -2.190600 0.341642 -0.939829 0.001251 
-123.747002 12.380700 -2.198930 0.000000 0.000000 0.000000 
3 267 250 228 
3 129 230 267 
3 91 205 337 
3 165 221 164 
3 54 251 328 
3 208 13 189 
3 216 79 233 
3 161 268 212 
3 268 278 72 
3 268 190 280 
3 143 311 53 
3 268 337 329 
3 240 338 333 
3 276 323 305 
3 190 229 280 
3 280 278 268 
3 61 127 232 
3 228 276 229 
3 66 195 67 
3 240 159 48 
3 195 37 64 
3 306 67 195 
3 297 15 208 
3 167 32 189 
3 23 196 167 
3 32 254 335 
3 283 290 25 
3 325 197 311 
3 0 43 10 
3 260 330 232 
3 284 25 123 
3 4 283 10 
3 120 96 286 
3 87 79 212 
3 241 59 225 
3 136 132 99 
3 62 325 96 
3 227 107 108 
3 336 161 212 
3 343 264 285 
3 272 235 53 
3 76 72 237 
3 278 280 237 
3 212 268 329 
3 91 194 205 
3 74 89 214 
3 267 229 190 
3 100 227 108 
3 266 161 336 
3 202 281 71 
3 202 253 53 
3 191 101 175 
3 101 100 108 
3 223 192 83 
3 100 217 340 
3 244 233 260 
3 202 53 235 
3 297 294 228 
3 215 87 212 
3 230 250 277 
3 246 248 292 
3 89 249 247 
3 246 250 230 
3 276 280 229 
3 276 305 280 
3 76 237 60 
3 72 278 237 
3 276 294 245 
3 205 338 337 
3 66 333 205 
3 333 338 205 
3 128 58 205 
3 66 67 333 
3 64 45 195 
3 306 317 67 
3 305 63 60 
3 37 195 66 
3 317 307 67 
3 238 159 240 
3 45 335 317 
3 48 337 338 
3 37 189 335 
3 193 307 335 
3 18 189 13 
3 15 167 189 
3 228 294 276 
3 18 13 208 
3 9 3 30 
3 325 62 197 
3 121 197 52 
3 2 123 0 
3 132 223 99 
3 59 163 225 
3 226 107 227 
3 99 259 185 
3 202 71 253 
3 270 59 143 
3 253 270 143 
3 62 96 302 
3 52 22 20 
3 42 52 123 
3 299 300 52 
3 123 255 284 
3 47 52 302 
3 350 112 115 
3 123 10 43 
3 43 0 123 
3 32 272 14 
3 124 2 104 
3 124 123 2 
3 27 124 104 
3 254 197 335 
3 124 283 34 
3 0 10 283 
3 25 286 34 
3 283 25 34 
3 290 257 25 
3 114 118 52 
3 290 283 257 
3 25 257 123 
3 300 117 52 
3 25 284 120 
3 303 96 120 
3 35 286 265 
3 314 285 265 
3 314 286 349 
3 286 314 265 
3 286 96 349 
3 255 303 284 
3 350 114 113 
3 350 96 303 
3 173 223 132 
3 173 59 270 
3 132 136 59 
3 59 185 259 
3 183 136 99 
3 106 135 344 
3 59 259 102 
3 102 259 344 
3 99 185 183 
3 340 122 153 
3 164 221 122 
3 96 59 342 
3 105 106 344 
3 314 349 285 
3 349 342 99 
3 349 343 285 
3 99 342 351 
3 153 82 340 
3 262 343 99 
3 48 329 337 
3 159 178 329 
3 268 328 194 
3 58 251 54 
3 161 190 268 
3 161 267 190 
3 328 76 54 
3 268 72 76 
3 128 328 251 
3 268 76 328 
3 337 194 91 
3 337 268 194 
3 78 216 74 
3 266 79 216 
3 161 78 214 
3 80 216 78 
3 161 266 78 
3 78 266 80 
3 79 266 336 
3 216 80 266 
3 264 212 329 
3 353 71 212 
3 212 79 336 
3 204 233 79 
3 202 215 281 
3 212 281 215 
3 204 87 215 
3 204 79 87 
3 78 74 214 
3 89 161 214 
3 216 233 74 
3 244 249 89 
3 232 204 235 
3 233 89 74 
3 204 202 235 
3 204 215 202 
3 212 71 281 
3 152 162 101 
3 53 253 143 
3 253 192 223 
3 141 233 204 
3 248 246 247 
3 250 297 228 
3 330 233 141 
3 232 330 141 
3 196 232 272 
3 127 260 232 
3 233 330 260 
3 249 244 127 
3 89 233 244 
3 247 249 127 
3 247 347 89 
3 346 347 246 
3 347 161 89 
3 246 347 247 
3 346 161 347 
3 129 269 246 
3 129 267 269 
3 305 60 237 
3 76 60 54 
3 269 346 246 
3 269 267 346 
3 346 267 161 
3 277 250 267 
3 240 48 338 
3 159 329 48 
3 194 128 205 
3 194 328 128 
3 58 66 205 
3 60 37 66 
3 60 58 54 
3 128 251 58 
3 37 60 63 
3 66 58 60 
3 280 305 237 
3 276 245 323 
3 267 228 229 
3 323 208 189 
3 250 213 297 
3 250 246 61 
3 208 245 294 
3 323 63 305 
3 208 323 245 
3 189 51 323 
3 67 240 333 
3 67 307 238 
3 67 238 240 
3 307 159 238 
3 45 317 306 
3 335 307 317 
3 189 32 335 
3 195 45 306 
3 64 335 45 
3 63 51 37 
3 63 323 51 
3 64 37 335 
3 51 189 37 
3 53 311 272 
3 213 293 297 
3 21 15 297 
3 208 294 297 
3 18 15 189 
3 18 208 15 
3 21 19 15 
3 167 15 19 
3 197 254 311 
3 197 193 335 
3 23 293 61 
3 14 254 32 
3 293 23 297 
3 23 19 21 
3 61 293 213 
3 213 250 61 
3 19 23 167 
3 21 297 23 
3 14 311 254 
3 143 59 325 
3 14 272 311 
3 32 167 196 
3 232 196 61 
3 272 32 196 
3 292 61 246 
3 196 23 61 
3 267 230 277 
3 129 246 230 
3 247 292 248 
3 127 61 292 
3 247 127 292 
3 244 260 127 
3 204 232 141 
3 235 272 232 
3 300 299 96 
3 302 96 299 
3 118 114 350 
3 350 115 117 
3 117 115 110 
3 117 300 350 
3 117 110 52 
3 115 112 110 
3 52 42 22 
3 42 123 124 
3 299 47 302 
3 299 52 47 
3 52 62 302 
3 325 59 96 
3 143 325 311 
3 62 52 197 
3 124 197 121 
3 42 124 22 
3 30 121 52 
3 20 124 9 
3 9 124 3 
3 3 31 30 
3 3 121 31 
3 9 30 52 
3 31 121 30 
3 3 124 121 
3 2 27 104 
3 283 124 27 
3 52 20 9 
3 22 124 20 
3 123 40 10 
3 257 283 40 
3 40 4 10 
3 40 283 4 
3 27 0 283 
3 27 2 0 
3 34 35 265 
3 34 286 35 
3 255 123 52 
3 257 40 123 
3 255 118 350 
3 255 52 118 
3 113 114 52 
3 113 112 350 
3 110 113 52 
3 110 112 113 
3 255 350 303 
3 300 96 350 
3 25 120 286 
3 284 303 120 
3 96 342 349 
3 316 344 351 
3 59 316 342 
3 226 99 107 
3 241 344 316 
3 225 163 344 
3 316 351 342 
3 344 99 351 
3 181 221 165 
3 343 349 99 
3 101 108 107 
3 101 83 152 
3 107 99 101 
3 344 259 99 
3 59 241 316 
3 225 344 241 
3 59 106 163 
3 135 102 344 
3 163 105 344 
3 163 106 105 
3 59 135 106 
3 59 102 135 
3 59 183 185 
3 59 136 183 
3 59 173 132 
3 270 223 173 
3 253 223 270 
3 253 200 192 
3 223 101 99 
3 223 83 101 
3 101 217 100 
3 122 221 82 
3 340 82 100 
3 153 122 82 
3 191 217 101 
3 82 221 100 
3 71 200 253 
3 71 353 200 
3 353 192 200 
3 191 175 162 
3 86 152 83 
3 162 175 101 
3 192 86 83 
3 86 191 162 
3 86 162 152 
3 86 192 191 
3 217 191 192 
3 122 340 164 
3 340 217 192 
3 340 181 165 
3 164 340 165 
3 263 343 262 
3 353 340 192 
3 353 263 181 
3 100 242 226 
3 261 99 242 
3 100 226 227 
3 242 99 226 
3 100 261 242 
3 221 99 261 
3 100 221 261 
3 181 263 262 
3 221 262 99 
3 221 181 262 
3 340 353 181 
3 264 343 263 
3 264 353 212 
3 264 263 353 
