ply
format ascii 1.0
comment PCL generated
element vertex 219
property float x
property float y
property float z
element face 0
element camera 1
property float view_px
property float view_py
property float view_pz
property float x_axisx
property float x_axisy
property float x_axisz
property float y_axisx
property float y_axisy
property float y_axisz
property float z_axisx
property float z_axisy
property float z_axisz
property float focal
property float scalex
property float scaley
property float centerx
property float centery
property int viewportx
property int viewporty
property float k1
property float k2
end_header
-118.631 9.9700899 -2.1083901
-118.631 9.9700899 -2.1083901
-118.598 10.0838 -4.1714201
-152.989 4.7284899 3.6250701
-152.989 4.7284899 3.6250701
-150.855 4.6491399 3.6232901
-146.29401 4.73629 -3.9000199
-134.50301 3.8629601 -2.43132
-134.45 3.98317 -4.0191593
-151.83 4.63059 -3.8447998
-151.688 4.6332898 -2.7581499
-153.138 4.6869798 -2.7857497
-151.299 5.1680498 -3.84957
-153.062 4.7080798 0.47225904
-151.683 5.0689301 0.258165
-118.681 5.2635198 -4.1754694
-118.681 5.2635198 -4.1754694
-118.598 10.0838 -4.1714201
-118.705 3.83358 -4.1766701
-118.737 3.83498 -2.12941
-118.705 3.83358 -4.1766701
-118.737 3.83498 -2.12941
-118.705 3.83358 -4.1766701
-123.754 3.44717 -4.1265993
-118.737 3.83498 -2.12941
-146.513 4.7320399 3.6194401
-151.698 5.06639 3.6236401
-148.043 4.7027898 7.1491899
-150.64101 5.0031199 0.86113399
-152.32899 4.9026198 7.1500807
-152.907 4.7513099 7.1504898
-151.99899 4.98771 3.62397
-153.162 4.6802201 -3.8314397
-151.299 5.1680498 -3.84957
-151.66499 5.0720201 -3.846
-153.162 4.6802201 -3.8314397
-153.162 4.6802201 -3.8314397
-151.67 5.0711999 -2.7564499
-151.228 4.6420398 0.76770699
-153.062 4.7080798 0.47225904
-151.299 5.1680498 -3.84957
-128.692 3.63604 -4.0770597
-128.44701 3.6189699 -2.3160901
-125.576 3.4412999 -4.1083994
-132.755 3.8148301 -2.398
-123.482 9.4548702 7.1344099
-123.339 12.4912 7.1293707
-123.339 12.4912 7.1293707
-123.755 3.66746 7.1440105
-123.752 3.73399 7.1438999
-123.743 3.88643 5.1936598
-123.682 5.1679401 5.1995502
-146.43201 4.7335601 7.1486807
-145.871 4.7021198 3.6189001
-139.769 4.3170099 7.14748
-150.394 4.6578999 7.14993
-145.871 4.7021198 3.6189001
-143.24001 4.79459 -3.9304798
-143.24001 4.79459 -3.9304798
-145.66499 4.74825 1.66273
-123.673 5.1682 -4.1256695
-123.484 3.8789799 -4.12887
-124.102 5.1600199 -4.1213999
-118.712 5.2628999 -2.12451
-123.475 9.56038 5.2197199
-123.756 3.44912 -2.2267399
-146.513 4.7320399 3.6194401
-151.713 5.0637298 7.1496401
-151.713 5.0637298 7.1496401
-134.993 9.4405499 7.1376905
-151.72301 5.0585899 0.68667197
-151.683 5.0689301 0.258165
-151.66499 5.0720201 -3.846
-151.401 5.1415401 -2.7510798
-151.83 4.63059 -3.8447998
-133.94299 3.9642601 -4.02425
-132.758 3.8901999 -4.03617
-132.737 4.3078399 -4.0359497
-133.94299 3.9642601 -4.02425
-132.758 3.8901999 -4.03617
-132.754 3.9670501 -4.03613
-134.20799 3.98087 -4.0215797
-123.328 12.4897 -4.1217098
-118.598 10.0838 -4.1714201
-123.482 9.4548702 7.1344099
-123.779 12.3761 7.1296806
-123.925 9.45432 7.1345301
-126.375 3.7648699 7.1445904
-128.451 3.7893 7.1451406
-124.139 5.1592002 7.1416607
-123.745 3.88749 7.1436405
-123.336 12.4907 3.5920701
-123.772 12.3771 5.1635299
-123.339 12.4912 7.1293707
-123.779 12.3761 7.1296806
-146.388 4.7344298 3.6193199
-143.814 4.7836299 -2.6068499
-136.31799 4.10534 3.16908
-132.424 10.1118 3.7778101
-123.767 12.3779 3.59255
-132.425 10.1115 3.60219
-152.907 4.7513099 7.1504898
-152.907 4.7513099 7.1504898
-124.164 3.9105 -4.1220398
-125.576 3.4412999 -4.1083994
-123.748 3.58448 -4.1265297
-118.712 5.2628999 -2.12451
-123.746 3.7354 1.33831
-125.634 3.4430101 -2.2627299
-125.817 3.4484501 3.6026199
-131.85001 3.8317201 -2.3806
-132.755 3.8148301 -2.398
-130.65401 3.7569799 -2.35794
-146.384 4.7344999 3.3222599
-134.45 3.98317 -4.0191593
-134.46899 3.9955201 -2.43027
-132.44299 9.4437199 7.1369705
-134.035 4.0496502 7.1462898
-132.66 4.99651 7.1443405
-137.631 4.1833601 7.14709
-151.72301 5.0585899 0.68667197
-153.138 4.6869798 -2.7857497
-128.692 3.63604 -4.0770597
-133.94299 3.9642601 -4.02425
-134.46899 3.9955201 -2.43027
-123.33 12.49 -2.1905999
-123.337 12.4909 5.23318
-118.631 9.9700899 -2.1083901
-123.761 3.5439999 7.1442099
-123.764 3.48175 7.14431
-123.684 5.1678901 7.1415205
-124.203 3.89184 7.1437607
-135.851 3.8764 7.14709
-123.767 12.3779 3.59255
-127.627 3.5615599 3.60409
-130.409 3.7355101 3.6063499
-130.388 3.73365 4.1246099
-127.49 3.55198 4.59162
-135.314 3.8710401 3.33131
-135.353 3.8714399 3.6105299
-123.733 3.8905399 -4.1263599
-124.165 3.8854499 -4.1220493
-123.74 3.7367201 -4.12644
-123.748 3.5697401 -4.1265402
-123.762 3.4551001 3.6008301
-123.75 3.7344699 5.1929598
-132.756 3.9200699 -4.03615
-131.94099 3.83127 3.60759
-130.724 3.7630999 -4.0566196
-129.72501 3.8071401 -4.0665598
-134.241 9.6361599 3.6042099
-132.411 10.1166 7.13585
-132.71899 3.7902701 7.1463499
-134.993 9.4405499 7.1376905
-123.741 12.3817 -4.1176901
-123.33 12.49 -2.1905999
-123.336 12.4907 3.5920701
-123.337 12.4909 5.23318
-123.442 10.0752 -4.1230202
-123.761 3.5439999 7.1442099
-123.76 3.57057 7.1441698
-127.135 3.52722 7.1451998
-123.684 5.1678901 7.1415205
-136.464 4.1140099 3.61127
-137.631 4.1833601 7.14709
-125.817 3.4484501 3.6026199
-124.213 3.45364 3.6012199
-124.215 3.50369 5.1187501
-123.755 3.6259799 5.1924601
-130.724 3.7630999 -4.0566196
-131.82401 3.83184 -4.0455599
-132.411 10.1166 7.13585
-130.263 3.72277 7.1457605
-132.70799 4.00034 7.1459999
-131.707 3.9631 7.1457701
-134.53799 3.98998 7.1465302
-133.589 3.8229401 3.60904
-136.31799 4.10534 3.16908
-123.741 12.3817 -4.1176901
-123.328 12.4897 -4.1217098
-123.747 12.3807 -2.19893
-123.747 12.3807 -2.19893
-123.856 10.0744 -4.1188793
-123.856 10.0744 -4.1188793
-124.21 3.7393899 7.1440201
-127.135 3.52722 7.1451998
-131.94501 3.83125 3.8736899
-124.193 3.4477 -2.2351301
-124.187 3.44578 -4.1222696
-123.761 3.49699 5.1918702
-123.734 3.88135 -4.1263695
-131.82401 3.83184 -4.0455599
-133.513 9.8266697 3.6034
-131.995 3.8310101 7.1460705
-132.73199 3.7990201 3.74717
-123.741 12.3817 -4.1176901
-124.22 3.5566101 7.1443205
-123.764 3.48175 7.14431
-132.71899 3.7902701 7.1463499
-134.53799 3.98998 7.1465302
-124.193 3.74052 1.88959
-123.762 3.4551001 3.6008301
-124.213 3.68449 7.1441107
-123.764 3.48175 7.14431
-124.223 3.4879401 7.1444302
-130.263 3.72277 7.1457605
-132.709 3.9878399 7.1460199
-132.71001 3.97262 7.14604
-132.73199 3.7993801 3.60831
-135.851 3.8764 7.14709
-124.172 3.7418101 -4.1221199
-124.218 3.5919299 7.1442604
-132.299 3.96872 7.1459303
-132.715 3.8759999 7.1462002
-135.851 3.8764 7.14709
-124.181 3.5755401 -4.1222095
-132.716 3.8395 7.1462603
-124.179 3.60057 -4.1222
-124.18 3.5833499 -4.1222
0 0 0 1 0 0 0 1 0 0 0 1 0 0 0 0 0 219 1 0 0
