ply
format ascii 1.0
comment Generated by the CGAL library
element vertex 359
property float x
property float y
property float z
element face 205
property list uchar int vertex_indices
end_header
-123.74 3.73672 -4.12644 
-151.299 5.16805 -3.84957 
-123.748 3.58448 -4.12653 
-124.179 3.60057 -4.1222 
-123.673 5.1682 -4.12567 
-143.24 4.79459 -3.93048 
-151.83 4.63059 -3.8448 
-124.102 5.16002 -4.1214 
-134.45 3.98317 -4.01916 
-124.172 3.74181 -4.12212 
-123.733 3.89054 -4.12636 
-123.734 3.88135 -4.12637 
-123.484 3.87898 -4.12887 
-134.208 3.98087 -4.02158 
-129.725 3.80714 -4.06656 
-132.758 3.8902 -4.03617 
-128.692 3.63604 -4.07706 
-131.824 3.83184 -4.04556 
-133.943 3.96426 -4.02425 
-132.756 3.92007 -4.03615 
-124.165 3.88545 -4.12205 
-132.754 3.96705 -4.03613 
-124.164 3.9105 -4.12204 
-132.737 4.30784 -4.03595 
-125.576 3.4413 -4.1084 
-123.328 12.4897 -4.12171 
-123.442 10.0752 -4.12302 
-123.748 3.56974 -4.12654 
-124.187 3.44578 -4.12227 
-123.754 3.44717 -4.1266 
-124.181 3.57554 -4.12221 
-124.18 3.58335 -4.1222 
-130.724 3.7631 -4.05662 
-123.748 3.57148 -4.12653 
-118.705 3.83358 -4.17667 
-118.681 5.26352 -4.17547 
-118.598 10.0838 -4.17142 
-146.294 4.73629 -3.90002 
-153.162 4.68022 -3.83144 
-151.665 5.07202 -3.846 
-123.856 10.0744 -4.11888 
-123.741 12.3817 -4.11769 
-124.102 5.16002 -4.1214 
-123.734 3.88135 -4.12637 
-118.598 10.0838 -4.17142 
-151.665 5.07202 -3.846 
-124.164 3.9105 -4.12204 
-124.173 3.8571 -2.23347 
-151.999 4.98771 3.62397 
-125.58 3.75641 3.60213 
-146.513 4.73204 3.61944 
-143.24 4.79459 -3.93048 
-124.168 3.88595 -3.25361 
-129.531 3.94054 3.6054 
-145.871 4.70212 3.6189 
-132.737 4.30784 -4.03595 
-132.718 4.08909 3.60803 
-133.586 4.12952 3.60875 
-146.384 4.7345 3.32226 
-124.193 3.74052 1.88959 
-145.665 4.74825 1.66273 
-132.733 4.26092 -2.3962 
-124.954 3.89395 -2.24832 
-143.814 4.78363 -2.60685 
-151.299 5.16805 -3.84957 
-151.401 5.14154 -2.75108 
-150.641 5.00312 0.861134 
-151.683 5.06893 0.258165 
-151.723 5.05859 0.686672 
-123.741 12.3817 -4.11769 
-150.394 4.6579 7.14993 
-128.451 3.7893 7.14514 
-137.631 4.18336 7.14709 
-134.538 3.98998 7.14653 
-132.716 3.8395 7.14626 
-127.135 3.52722 7.1452 
-139.769 4.31701 7.14748 
-132.715 3.876 7.1462 
-132.71 3.97262 7.14604 
-132.299 3.96872 7.14593 
-132.709 3.98784 7.14602 
-135.851 3.8764 7.14709 
-123.761 3.544 7.14421 
-124.223 3.48794 7.14443 
-123.764 3.48175 7.14431 
-123.76 3.57057 7.14417 
-124.22 3.55661 7.14432 
-131.995 3.83101 7.14607 
-130.263 3.72277 7.14576 
-132.719 3.79027 7.14635 
-152.907 4.75131 7.15049 
-150.394 4.6579 7.14993 
-123.764 3.48175 7.14431 
-123.755 3.66746 7.14401 
-123.748 3.58448 -4.12653 
-123.74 3.73672 -4.12644 
-123.746 3.7354 1.33831 
-123.734 3.88135 -4.12637 
-123.734 3.88153 -3.80891 
-123.753 3.64751 4.43425 
-123.764 3.48175 7.14431 
-123.761 3.49699 5.19187 
-123.762 3.4551 3.60083 
-123.748 3.56974 -4.12654 
-123.748 3.57148 -4.12653 
-123.753 3.64137 3.60065 
-123.757 3.55264 3.60073 
-123.755 3.62598 5.19246 
-123.759 3.54876 5.19211 
-123.761 3.544 7.14421 
-123.75 3.56685 -2.22627 
-123.759 3.50941 3.60078 
-123.749 3.59847 -2.22615 
-123.742 3.73626 -2.22559 
-123.738 3.83657 -2.22519 
-123.751 3.55491 -2.22632 
-123.754 3.44717 -4.1266 
-123.756 3.44912 -2.22674 
-123.736 3.88239 -2.22501 
-123.339 12.4912 7.12937 
-123.33 12.49 -2.1906 
-124.187 3.44578 -4.12227 
-123.755 3.66746 7.14401 
-123.734 3.88153 -3.80891 
-123.754 3.44717 -4.1266 
-129.531 3.94054 3.6054 
-151.999 4.98771 3.62397 
-132.718 4.08909 3.60803 
-146.513 4.73204 3.61944 
-133.586 4.12952 3.60875 
-145.871 4.70212 3.6189 
-123.762 3.4551 3.60083 
-124.213 3.45364 3.60122 
-127.627 3.56156 3.60409 
-125.817 3.44845 3.60262 
-123.759 3.50941 3.60078 
-124.21 3.51549 3.60116 
-125.58 3.75641 3.60213 
-124.198 3.74015 3.60094 
-123.336 12.4907 3.59207 
-151.683 5.06893 0.258165 
-132.425 10.1115 3.60219 
-123.759 3.50941 3.60078 
-127.627 3.56156 3.60409 
-124.198 3.74015 3.60094 
-124.213 3.45364 3.60122 
-123.779 12.3761 7.12968 
-124.21 3.51549 3.60116 
-124.223 3.48794 7.14443 
-123.762 3.4551 3.60083 
-123.903 9.64936 3.5952 
-124.193 3.74052 1.88959 
-124.218 3.59193 7.14426 
-123.76 3.57057 7.14417 
-152.329 4.90262 7.15008 
-152.907 4.75131 7.15049 
-123.752 3.73399 7.1439 
-133.943 3.96426 -4.02425 
-134.469 3.99552 -2.43027 
-152.989 4.72849 3.62507 
-137.631 4.18336 7.14709 
-134.035 4.04965 7.14629 
-124.213 3.68449 7.14411 
-123.751 3.67117 3.60062 
-123.752 3.73399 7.1439 
-123.745 3.88749 7.14364 
-124.164 3.9105 -4.12204 
-131.824 3.83184 -4.04556 
-124.193 3.74052 1.88959 
-131.995 3.83101 7.14607 
-131.945 3.83125 3.87369 
-135.851 3.8764 7.14709 
-134.503 3.86296 -2.43132 
-125.58 3.75641 3.60213 
-123.856 10.0744 -4.11888 
-124.21 3.73939 7.14402 
-123.736 3.88239 -2.22501 
-118.705 3.83358 -4.17667 
-152.907 4.75131 7.15049 
-124.191 3.88983 3.6008 
-124.128 5.15946 3.59957 
-123.684 5.16789 7.14152 
-123.482 9.45487 7.13441 
-124.198 3.74015 3.60094 
-134.234 3.98159 -3.14077 
-124.191 3.88983 3.6008 
-124.173 3.8571 -2.23347 
-123.745 3.88749 7.14364 
-123.684 5.16789 7.14152 
-134.45 3.98317 -4.01916 
-134.538 3.98998 7.14653 
-124.203 3.89184 7.14376 
-126.375 3.76487 7.14459 
-153.162 4.68022 -3.83144 
-148.043 4.70279 7.14919 
-151.401 5.14154 -2.75108 
-131.85 3.83172 -2.3806 
-125.576 3.4413 -4.1084 
-125.817 3.44845 3.60262 
-151.713 5.06373 7.14964 
-127.135 3.52722 7.1452 
-130.263 3.72277 7.14576 
-130.388 3.73365 4.12461 
-131.85 3.83172 -2.3806 
-131.945 3.83125 3.87369 
-150.855 4.64914 3.62329 
-137.631 4.18336 7.14709 
-133.943 3.96426 -4.02425 
-134.234 3.98159 -3.14077 
-136.464 4.11401 3.61127 
-132.758 3.8902 -4.03617 
-133.513 9.82667 3.6034 
-132.411 10.1166 7.13585 
-132.754 3.84237 -2.39789 
-132.715 3.876 7.1462 
-131.707 3.9631 7.14577 
-132.708 4.00034 7.146 
-124.139 5.1592 7.14166 
-131.995 3.83101 7.14607 
-132.719 3.79027 7.14635 
-123.767 12.3779 3.59255 
-123.772 12.3771 5.16353 
-123.337 12.4909 5.23318 
-124.215 3.50369 5.11875 
-123.761 3.49699 5.19187 
-123.748 3.73485 3.60056 
-123.75 3.73447 5.19296 
-123.754 3.65309 5.19259 
-134.429 3.98698 3.47335 
-134.433 3.98709 3.60962 
-133.588 3.93424 3.60893 
-151.698 5.06639 3.62364 
-131.941 3.83127 3.60759 
-132.424 10.1118 3.77781 
-127.49 3.55198 4.59162 
-130.409 3.73551 3.60635 
-131.941 3.83127 3.60759 
-136.464 4.11401 3.61127 
-153.062 4.70808 0.472259 
-151.999 4.98771 3.62397 
-151.723 5.05859 0.686672 
-123.741 3.88556 3.60041 
-123.743 3.88643 5.19366 
-135.353 3.87144 3.61053 
-132.728 3.88032 3.74756 
-134.469 3.99552 -2.43027 
-132.732 3.79938 3.60831 
-132.732 3.79902 3.74717 
-132.73 3.84056 3.60827 
-132.73 3.84052 3.74737 
-133.589 3.82294 3.60904 
-146.388 4.73443 3.61932 
-127.135 3.52722 7.1452 
-127.49 3.55198 4.59162 
-128.692 3.63604 -4.07706 
-123.675 5.16815 -2.21987 
-123.328 12.4897 -4.12171 
-123.741 12.3817 -4.11769 
-118.681 5.26352 -4.17547 
-124.128 5.15946 3.59957 
-132.674 4.99628 3.60715 
-123.682 5.16794 5.19955 
-123.475 9.56038 5.21972 
-123.482 9.45487 7.13441 
-123.339 12.4912 7.12937 
-118.598 10.0838 -4.17142 
-132.66 4.99651 7.14434 
-134.241 9.63616 3.60421 
-134.993 9.44055 7.13769 
-133.575 4.97908 3.60795 
-125.817 3.44845 3.60262 
-125.576 3.4413 -4.1084 
-130.654 3.75698 -2.35794 
-130.724 3.7631 -4.05662 
-130.409 3.73551 3.60635 
-132.716 3.8395 7.14626 
-135.314 3.87104 3.33131 
-133.589 3.85067 3.60901 
-135.851 3.8764 7.14709 
-130.388 3.73365 4.12461 
-135.353 3.87144 3.61053 
-130.263 3.72277 7.14576 
-132.755 3.81483 -2.398 
-123.484 3.87898 -4.12887 
-123.449 9.96926 -2.20068 
-118.631 9.97009 -2.10839 
-118.737 3.83498 -2.12941 
-118.712 5.2629 -2.12451 
-118.631 9.97009 -2.10839 
-118.705 3.83358 -4.17667 
-123.442 10.0752 -4.12302 
-123.328 12.4897 -4.12171 
-132.728 3.88049 3.60823 
-132.751 3.88812 -2.3977 
-134.255 3.98217 -2.42622 
-151.299 5.16805 -3.84957 
-130.654 3.75698 -2.35794 
-132.755 3.81483 -2.398 
-123.736 3.88239 -2.22501 
-124.172 3.88653 -2.23335 
-124.108 5.15988 -2.22819 
-125.634 3.44301 -2.26273 
-124.193 3.4477 -2.23513 
-123.747 12.3807 -2.19893 
-123.756 3.44912 -2.22674 
-136.318 4.10534 3.16908 
-151.67 5.0712 -2.75645 
-153.138 4.68698 -2.78575 
-124.168 3.88595 -3.25361 
-130.654 3.75698 -2.35794 
-127.627 3.56156 3.60409 
-128.447 3.61897 -2.31609 
-135.314 3.87104 3.33131 
-118.737 3.83498 -2.12941 
-118.712 5.2629 -2.12451 
-123.442 10.0752 -4.12302 
-123.681 5.16799 3.59917 
-151.688 4.63329 -2.75815 
-118.631 9.97009 -2.10839 
-123.675 5.16815 -2.21987 
-132.754 3.84237 -2.39789 
-136.318 4.10534 3.16908 
-131.85 3.83172 -2.3806 
-134.503 3.86296 -2.43132 
-134.503 3.86296 -2.43132 
-125.634 3.44301 -2.26273 
-118.737 3.83498 -2.12941 
-123.449 9.96926 -2.20068 
-146.432 4.73356 7.14868 
-152.329 4.90262 7.15008 
-132.448 9.63845 3.60265 
-123.767 12.3779 3.59255 
-152.989 4.72849 3.62507 
-151.228 4.64204 0.767707 
-153.138 4.68698 -2.78575 
-151.83 4.63059 -3.8448 
-132.443 9.44372 7.13697 
-151.713 5.06373 7.14964 
-151.698 5.06639 3.62364 
-132.425 10.1115 3.60219 
-123.925 9.45432 7.13453 
-132.411 10.1166 7.13585 
-123.47 9.64991 3.59483 
-123.337 12.4909 5.23318 
-123.903 9.64936 3.5952 
-153.062 4.70808 0.472259 
-133.515 9.63709 3.60358 
-133.513 9.82667 3.6034 
-123.449 9.96926 -2.20068 
-123.336 12.4907 3.59207 
-123.868 9.96918 -2.2087 
-123.767 12.3779 3.59255 
-123.339 12.4912 7.12937 
-123.779 12.3761 7.12968 
-134.993 9.44055 7.13769 
-134.241 9.63616 3.60421 
-153.162 4.68022 -3.83144 
-123.33 12.49 -2.1906 
-123.747 12.3807 -2.19893 
4 221 222 139 220 
4 4 7 22 10 
4 0 9 3 2 
5 34 35 4 10 12 
4 31 32 16 30 
4 31 33 2 3 
4 13 37 6 8 
4 11 20 9 0 
3 9 14 3 
4 35 36 26 4 
4 39 38 6 37 
4 26 40 7 4 
4 19 21 13 18 
3 11 12 10 
4 20 11 10 22 
5 21 23 5 37 13 
3 15 19 18 
3 18 13 8 
5 21 19 14 9 20 
4 23 21 20 22 
4 19 15 17 14 
4 24 28 30 16 
4 28 29 27 30 
4 25 41 40 26 
5 32 31 3 14 17 
4 33 31 30 27 
4 1 39 37 5 
5 63 61 56 57 60 
4 65 64 51 63 
3 47 62 52 
3 58 54 50 
4 61 62 53 56 
4 60 57 54 58 
3 66 60 58 
4 61 63 51 55 
5 62 47 59 49 53 
5 62 61 55 46 52 
5 67 65 63 60 66 
3 68 67 66 
5 48 68 66 58 50 
4 329 90 70 194 
4 86 88 75 83 
4 72 76 194 70 
3 77 78 73 
5 78 80 161 72 73 
3 76 72 161 
5 78 77 87 71 79 
3 80 78 79 
4 82 86 83 84 
5 88 86 152 71 87 
4 89 88 87 74 
3 81 89 74 
4 86 82 85 152 
4 223 224 142 147 
5 226 227 99 163 225 
5 112 113 96 163 105 
3 99 105 163 
4 110 115 103 104 
3 113 114 96 
4 106 108 101 111 
4 108 109 100 101 
4 117 116 103 115 
4 110 112 105 106 
5 108 106 105 99 107 
4 109 108 107 153 
4 115 110 106 111 
4 112 110 104 94 
4 113 112 94 95 
5 114 113 95 97 98 
4 102 117 115 111 
3 43 123 283 
4 136 135 131 132 
4 133 136 132 134 
3 138 151 137 
5 293 294 228 230 292 
5 114 298 241 225 96 
4 299 300 180 185 
4 301 302 121 197 
4 221 233 212 146 
4 156 175 162 122 
4 223 234 200 148 
5 127 260 259 179 125 
4 120 303 220 139 
4 302 304 124 121 
4 192 71 152 162 
3 227 107 99 
4 159 155 154 239 
5 306 307 238 240 140 
4 122 162 152 85 
3 175 192 162 
4 226 242 187 164 
4 309 311 254 273 
3 96 225 163 
4 170 244 214 169 
4 165 191 175 156 
3 80 216 161 
4 313 314 258 177 
5 216 266 328 76 161 
4 286 287 255 176 
4 300 350 344 180 
4 339 331 150 330 
4 262 263 181 261 
4 178 332 205 91 
4 182 340 217 188 
4 314 318 265 258 
4 228 305 237 229 
4 298 319 316 241 
3 299 186 308 
4 125 179 183 173 
4 242 261 181 187 
4 333 321 209 205 
4 190 229 237 160 
4 191 165 188 217 
4 215 79 71 192 
4 191 215 192 175 
4 196 320 248 236 
4 199 231 239 154 
4 202 247 219 201 
3 251 130 128 
4 204 249 275 218 
4 306 195 295 45 
4 209 206 91 205 
3 207 208 189 
3 76 328 194 
4 126 338 251 128 
4 293 322 167 210 
5 297 323 312 250 246 
5 267 268 212 233 211 
4 129 269 260 127 
5 244 230 229 190 214 
4 216 80 79 215 
5 266 216 215 191 217 
4 353 341 336 340 
5 320 324 276 277 248 
5 247 250 243 171 219 
4 222 221 146 119 
4 224 223 148 92 
4 227 226 164 93 
3 230 228 229 
4 274 279 253 310 
4 233 221 220 141 
4 234 223 147 143 
4 107 227 93 153 
4 240 238 159 239 
4 242 226 225 241 
4 244 170 232 292 
4 349 343 262 342 
4 294 158 305 228 
4 261 242 241 316 
4 317 245 321 333 
4 247 202 235 246 
4 249 204 236 248 
3 250 312 243 
3 211 233 141 
4 269 129 130 251 
3 230 244 292 
3 276 280 277 
3 250 247 246 
3 277 249 248 
4 279 281 252 253 
4 311 325 271 254 
4 330 150 259 260 
4 343 352 263 262 
4 264 353 340 182 
4 268 267 231 199 
4 346 330 260 269 
4 340 336 266 217 
4 342 262 261 316 
4 282 272 203 213 
5 280 278 275 249 277 
3 172 282 213 
4 285 327 290 44 
4 287 288 284 255 
5 294 293 210 157 184 
4 296 297 246 235 
3 298 114 98 
5 300 299 308 166 42 
4 302 301 198 145 
4 303 120 291 69 
4 304 302 145 149 
4 307 306 45 193 
4 311 309 274 310 
4 319 348 342 316 
4 350 300 42 174 
4 334 356 335 317 
5 186 299 185 144 168 
3 195 306 140 
4 322 293 292 232 
3 158 294 184 
5 245 317 335 189 208 
4 325 311 310 270 
4 322 309 273 167 
5 118 326 289 283 123 
4 337 329 194 328 
4 345 334 317 333 
5 354 337 328 266 336 
4 347 339 330 346 
4 332 345 333 205 
3 355 347 346 
4 357 349 342 348 
4 358 351 344 350 
3 341 354 336 
5 338 355 346 269 251 
4 256 357 348 315 
4 257 358 350 174 
