ply
format ascii 1.0
comment Generated by the CGAL library
element vertex 472
property double x
property double y
property double z
element face 182
property list uchar int vertex_indices
end_header
-61.0913 63.2291 -3.22464 
-61.0943 63.1734 -3.2252 
-60.6222 71.8829 -3.13806 
-60.2489 78.769 -3.06916 
-57.5263 71.0667 -3.14996 
-56.7452 78.5323 -3.07571 
-58.3655 63.0473 -3.22971 
-58.36 63.0994 -3.2292 
-140.891 72.3569 -3.03793 
-139.325 73.0657 -3.03265 
-140.905 72.072 -3.04078 
-139.377 71.9357 -3.04397 
-139.325 73.0657 -3.03265 
-140.891 72.3569 -3.03793 
-61.0913 63.2291 -3.22464 
-59.7745 63.1666 -3.26206 
-189.307 69.3186 -3.72368 
-173.255 68.5562 -3.59885 
-57.0259 63.0361 -3.31656 
-58.36 63.0994 -3.2292 
-173.255 68.5563 -3.67428 
-187.124 69.215 -3.71696 
-173.254 68.5562 -3.55426 
-182.849 69.0119 -3.59475 
-55.2264 62.9507 -3.31102 
-57.7524 63.0706 -3.26898 
-57.0961 63.0395 -3.31196 
-58.0021 63.0825 -3.31241 
-61.0943 63.1734 -3.2252 
-58.3655 63.0473 -3.22971 
-189.307 69.3186 -3.72368 
-90.9904 65.9663 -3.00436 
-57.7524 63.0706 -3.26898 
-173.263 68.3564 -3.67588 
-57.037 62.9505 -3.31727 
-173.346 66.3329 -3.69205 
-173.255 68.5562 -3.59885 
-95.8677 69.175 -2.92341 
-94.9434 71.6951 -2.90574 
-172.862 78.0742 -2.77878 
-94.6913 75.2742 -2.88987 
-55.1267 75.0108 -3.25517 
-54.8373 75.0134 -3.25794 
-72.9424 73.8732 -3.06433 
-90.7448 73.2815 -2.86316 
-90.4333 77.7606 -2.98193 
-56.4675 74.2476 -3.2266 
-55.6169 73.8692 -3.22663 
-101.109 73.265 -2.82965 
-77.1732 74.8135 -3.0444 
-90.5781 74.6936 -2.91624 
-104.073 74.5729 -2.78723 
-59.2214 72.6802 -3.16791 
-56.7724 72.1733 -3.18023 
-126.026 80.4879 -2.89248 
-129.255 74.4768 -2.94348 
-126.953 73.5486 -2.90114 
-120.918 71.1154 -2.79016 
-124.956 79.2723 -2.8719 
-101.984 78.9565 -2.93923 
-117.749 80.417 -2.91758 
-101.846 73.108 -2.82419 
-119.291 72.8353 -2.76295 
-116.611 72.8772 -2.77235 
-116.82 74.26 -2.79899 
-107.111 73.0257 -2.80571 
-121.014 74.7931 -2.79608 
-101.109 73.265 -2.82965 
-117.561 79.1707 -2.89357 
-116.863 74.5464 -2.8045 
-121.1 74.891 -2.79774 
-117.561 79.1707 -2.89357 
-126.026 80.4879 -2.89248 
-117.749 80.417 -2.91758 
-126.026 80.4879 -2.89248 
-124.956 79.2723 -2.8719 
-90.6447 73.2831 -2.86351 
-175.211 78.3634 -2.76895 
-90.3844 78.797 -2.97322 
-56.7452 78.5323 -3.07571 
-72.9576 73.5596 -2.92561 
-94.2831 73.2262 -2.85074 
-60.6222 71.8829 -3.13806 
-76.0585 78.6001 -3.0152 
-93.7964 74.8224 -2.88381 
-90.5393 75.516 -2.90794 
-60.2489 78.769 -3.06916 
-116.82 74.26 -2.79899 
-127.521 73.7779 -2.9116 
-117.561 79.1707 -2.89357 
-94.6913 75.2742 -2.88987 
-121.014 74.7931 -2.79608 
-90.8444 69.0586 -3.05508 
-57.5263 71.0667 -3.14996 
-56.8615 78.3362 -3.07146 
-90.951 66.8022 -3.07405 
-72.9424 73.8732 -3.06433 
-72.7155 78.5541 -3.025 
-105.344 70.7563 -2.99979 
-90.8444 69.0586 -3.05508 
-61.5672 71.3451 -3.11792 
-59.0384 61.8604 -3.20602 
-90.3844 78.797 -2.97322 
-57.8931 70.5285 -3.13523 
-58.8715 63.1237 -3.19571 
-62.5304 63.2396 -3.18442 
-60.7301 78.3893 -3.06012 
-105.822 69.5901 -3.00841 
-175.558 10.605 3.47467 
-174.971 23.0245 3.64429 
-161.349 9.43918 -0.88423 
-159.794 9.36443 -0.897243 
-159.794 9.36446 -1.03267 
-57.7751 63.0717 -3.31886 
-57.7893 62.9505 -3.31986 
-57.9118 63.0265 -3.31557 
-59.7745 63.1666 -3.26206 
-58.0021 63.0825 -3.31241 
-56.3894 63.0059 -3.35823 
-60.6222 71.8829 -3.13806 
-54.6569 75.2782 -3.26518 
-55.3854 70.1179 -3.30431 
-57.0961 63.0395 -3.31196 
-57.9118 63.0265 -3.31557 
-56.4675 74.2476 -3.2266 
-56.3964 62.9566 -3.35861 
-161.349 9.43921 -1.03461 
-58.8715 63.1237 -3.19571 
-60.7301 78.3893 -3.06012 
-60.7301 78.3893 -3.06012 
-61.5672 71.3451 -3.11792 
-63.3319 63.3355 -3.16098 
-63.3122 63.2757 -3.16222 
-59.2214 72.6802 -3.16791 
-56.3964 62.9566 -3.35861 
-62.5236 63.2971 -3.18395 
-62.5236 63.2971 -3.18395 
-61.0943 63.1734 -3.2252 
-117.749 80.417 -2.91758 
-129.255 74.4768 -2.94348 
-119.291 72.8353 -2.76295 
-127.573 73.6676 -2.9124 
-140.905 72.072 -3.04078 
-140.861 72.9963 -3.0488 
-139.325 73.077 -3.03284 
-140.861 72.9963 -3.0488 
-127.521 73.7779 -2.9116 
-129.255 74.4768 -2.94348 
-116.611 72.8772 -2.77235 
-161.349 9.43918 -0.88423 
-161.326 9.9208 -0.894547 
-127.345 73.7067 -2.90836 
-122.769 71.9078 -2.98845 
-173.346 66.3329 -3.69205 
-104.073 74.5729 -2.78723 
-116.82 74.26 -2.79899 
-123.095 73.9301 -2.86419 
-173.346 66.3329 -3.69205 
-90.9313 67.2169 -3.04833 
-189.398 69.1019 -3.7257 
-139.572 67.6671 -3.3093 
-141.122 67.5272 -3.32331 
-90.8798 68.3069 -2.98073 
-182.849 69.0119 -3.59475 
-183.674 68.8373 -3.61142 
-173.254 68.5562 -3.55426 
-173.263 68.3562 -3.56666 
-139.525 68.6882 -3.30499 
-141.068 68.6469 -3.31857 
-110 70.3361 -3.0419 
-91.3219 72.8189 -2.86995 
-94.9881 69.88 -2.91307 
-101.984 78.9565 -2.93923 
-90.951 66.8022 -3.07405 
-127.573 73.6676 -2.9124 
-123.188 72.8456 -2.93175 
-90.7448 73.2815 -2.86316 
-107.111 73.0257 -2.80571 
-98.2104 70.7162 -2.88453 
-127.521 73.7779 -2.9116 
-127.573 73.6676 -2.9124 
-139.39 71.6399 -3.12196 
-140.938 71.3743 -3.14941 
-188.536 67.3766 -3.73627 
-188.536 67.3766 -3.73627 
-190.079 67.4827 -3.74076 
-189.398 69.1019 -3.7257 
-57.7893 62.9505 -3.31986 
-173.255 68.5563 -3.67428 
-55.2264 62.9507 -3.31102 
-178.584 68.8088 -2.8552 
-190.079 67.4827 -3.74076 
-173.286 67.7847 -3.60207 
-62.7347 61.5206 -3.19853 
-62.7347 61.5206 -3.19853 
-183.674 68.8373 -3.61142 
-173.251 68.5556 -2.87346 
-187.286 69.0044 -3.71918 
-173.263 68.3563 -3.59969 
-189.307 69.3186 -3.72368 
-190.079 67.4827 -3.74076 
-57.0324 62.9859 -3.31697 
-183.234 55.6344 -2.97412 
-175.557 10.6086 -0.641007 
-174.971 23.015 -0.514476 
-173.797 55.1826 -3.00647 
-174.554 68.6174 -2.82335 
-173.251 68.5555 -2.81306 
-182.849 69.0119 -3.59475 
-173.263 68.3562 -3.56666 
-173.286 67.7847 -3.60207 
-172.842 78.5646 -2.7483 
-187.124 69.215 -3.71696 
-173.263 68.3564 -3.67588 
-173.254 68.5562 -3.55426 
-173.259 68.3548 -2.87545 
-173.259 68.3547 -2.81436 
-173.255 68.5563 -3.67428 
-95.6152 69.8632 -2.91859 
-94.9881 69.88 -2.91307 
-98.2104 70.7162 -2.88453 
-90.6447 73.2831 -2.86351 
-90.6709 72.7293 -2.87417 
-99.6076 73.143 -2.83205 
-102.701 73.6707 -2.80999 
-92.4422 71.9208 -2.88313 
-90.8561 68.8078 -2.94966 
-94.5684 74.6579 -2.8781 
-107.111 73.0257 -2.80571 
-73.1149 70.3142 -2.98807 
-95.6152 69.8632 -2.91859 
-95.6152 69.8632 -2.91859 
-174.598 68.4166 -2.82495 
-119.291 72.8353 -2.76295 
-120.918 71.1154 -2.79016 
-94.2831 73.2262 -2.85074 
-116.611 72.8772 -2.77235 
-94.5684 74.6579 -2.8781 
-93.7964 74.8224 -2.88381 
-94.5684 74.6579 -2.8781 
-94.2831 73.2262 -2.85074 
-90.7448 73.2815 -2.86316 
-95.8677 69.175 -2.92341 
-90.9904 65.9663 -3.00436 
-99.6076 73.143 -2.83205 
-91.3219 72.8189 -2.86995 
-101.109 73.265 -2.82965 
-62.5304 63.2396 -3.18442 
-62.7347 61.5206 -3.19853 
-63.3122 63.2757 -3.16222 
-58.8784 63.0709 -3.19614 
-59.0384 61.8604 -3.20602 
-59.0928 63.0808 -3.1821 
-63.3319 63.3355 -3.16098 
-59.0952 63.1343 -3.18105 
-73.1149 70.3142 -2.98807 
-72.9576 73.5596 -2.92561 
-72.7155 78.5541 -3.025 
-76.0585 78.6001 -3.0152 
-77.1732 74.8135 -3.0444 
-72.7155 78.5541 -3.025 
-72.9424 73.8732 -3.06433 
-90.4333 77.7606 -2.98193 
-90.5781 74.6936 -2.91624 
-90.3844 78.797 -2.97322 
-90.5393 75.516 -2.90794 
-90.4333 77.7606 -2.98193 
-90.8798 68.3069 -2.98073 
-90.77 70.6323 -2.95725 
-72.9576 73.5596 -2.92561 
-95.8677 69.175 -2.92341 
-73.1149 70.3142 -2.98807 
-92.4422 71.9208 -2.88313 
-90.6447 73.2831 -2.86351 
-90.9904 65.9663 -3.00436 
-90.6709 72.7293 -2.87417 
-90.6709 72.7293 -2.87417 
-90.7229 71.6276 -2.89538 
-90.8561 68.8078 -2.94966 
-90.951 66.8022 -3.07405 
-178.656 68.6042 -2.85704 
-79.4034 74.7936 -3.02308 
-84.8799 76.5264 -3.00809 
-77.0909 78.3802 -3.00756 
-80.4554 78.6605 -3.00232 
-106.812 70.6239 -3.01306 
-84.8799 76.5264 -3.00809 
-80.4554 78.6605 -3.00232 
-110 70.3361 -3.0419 
-90.9313 67.2169 -3.04833 
-101.097 68.7043 -3.02926 
-72.996 72.7663 -3.04061 
-72.7415 78.0178 -3.01433 
-90.8312 69.338 -3.03771 
-98.5032 69.9553 -3.02588 
-106.812 70.6239 -3.01306 
-122.769 71.9078 -2.98845 
-173.259 68.3548 -2.87545 
-101.097 68.7043 -3.02926 
-72.7415 78.0178 -3.01433 
-72.996 72.7663 -3.04061 
-161.349 9.43921 -1.03461 
-161.326 9.92093 -1.03508 
-159.794 9.36446 -1.03267 
-159.77 9.84569 -1.03313 
-161.349 9.43921 -1.03461 
-161.326 9.92093 -1.03508 
-161.349 9.43918 -0.88423 
-175.557 10.6086 -0.641007 
-175.557 10.6086 -0.641007 
-175.604 10.6108 -0.639683 
-175.558 10.605 3.47467 
-175.584 10.6062 3.47633 
-161.326 9.9208 -0.894547 
-159.77 9.84559 -0.907553 
-161.326 9.9208 -0.894547 
-175.604 10.6108 -0.639683 
-127.345 73.7067 -2.90836 
-101.846 73.108 -2.82419 
-99.6076 73.143 -2.83205 
-102.701 73.6707 -2.80999 
-57.0259 63.0361 -3.31656 
-59.7175 64.1464 -3.25236 
-57.0259 63.0361 -3.31656 
-57.0961 63.0395 -3.31196 
-57.6638 63.8936 -3.26096 
-90.8798 68.3069 -2.98073 
-90.7229 71.6276 -2.89538 
-62.237 65.709 -3.16416 
-61.0913 63.2291 -3.22464 
-60.9985 64.9409 -3.20752 
-58.36 63.0994 -3.2292 
-58.1935 64.6906 -3.21337 
-105.881 78.0168 -2.97671 
-120.918 71.1154 -2.79016 
-105.822 69.5901 -3.00841 
-101.984 78.9565 -2.93923 
-173.251 68.5556 -2.87346 
-94.9881 69.88 -2.91307 
-92.4422 71.9208 -2.88313 
-105.881 78.0168 -2.97671 
-172.862 78.0742 -2.77878 
-172.842 78.5646 -2.7483 
-123.095 73.9301 -2.86419 
-123.188 72.8456 -2.93175 
-62.5236 63.2971 -3.18395 
-62.237 65.709 -3.16416 
-58.8715 63.1237 -3.19571 
-58.5864 65.2816 -3.17808 
-172.948 75.97 -2.76509 
-57.7893 62.9505 -3.31986 
-57.037 62.9505 -3.31727 
-105.881 78.0168 -2.97671 
-139.377 71.9357 -3.04397 
-140.905 72.072 -3.04078 
-126.953 73.5486 -2.90114 
-127.345 73.7067 -2.90836 
-123.05 74.4436 -2.8322 
-106.812 70.6239 -3.01306 
-90.77 70.6323 -2.95725 
-139.434 70.686 -3.12164 
-140.988 70.3295 -3.1491 
-90.8444 69.0586 -3.05508 
-98.5032 69.9553 -3.02588 
-105.344 70.7563 -2.99979 
-104.073 74.5729 -2.78723 
-93.8543 74.6643 -2.88492 
-105.344 70.7563 -2.99979 
-121.1 74.891 -2.79774 
-55.2264 62.9507 -3.31102 
-172.842 78.5646 -2.7483 
-94.9434 71.6951 -2.90574 
-102.701 73.6707 -2.80999 
-90.7229 71.6276 -2.89538 
-110 70.3361 -3.0419 
-122.769 71.9078 -2.98845 
-90.8312 69.338 -3.03771 
-56.3894 63.0059 -3.35823 
-57.5263 71.0667 -3.14996 
-56.7724 72.1733 -3.18023 
-60.2489 78.769 -3.06916 
-54.6569 75.2782 -3.26518 
-55.3854 70.1179 -3.30431 
-56.269 62.9506 -3.31462 
-55.1267 75.0108 -3.25517 
-56.8615 78.3362 -3.07146 
-56.7452 78.5323 -3.07571 
-56.8615 78.3362 -3.07146 
-58.0021 63.0825 -3.31241 
-63.3319 63.3355 -3.16098 
-57.8931 70.5285 -3.13523 
-58.3655 63.0473 -3.22971 
-58.8784 63.0709 -3.19614 
-57.0614 62.9872 -3.31508 
-56.269 62.9506 -3.31462 
-54.8373 75.0134 -3.25794 
-54.6569 75.2782 -3.26518 
-62.5304 63.2396 -3.18442 
-59.0952 63.1343 -3.18105 
-55.6169 73.8692 -3.22663 
-175.604 10.6108 -0.639683 
-175.097 23.021 -0.510896 
-57.7811 63.0205 -3.31929 
-175.558 10.605 3.47467 
-57.7811 63.0205 -3.31929 
-57.0324 62.9859 -3.31697 
-59.0384 61.8604 -3.20602 
-58.8784 63.0709 -3.19614 
-59.0928 63.0808 -3.1821 
-56.3964 62.9566 -3.35861 
-175.584 10.6062 3.47633 
-175.076 23.0295 3.65114 
-59.0952 63.1343 -3.18105 
-175.584 10.6062 3.47633 
-57.7811 63.0205 -3.31929 
-58.5864 65.2816 -3.17808 
-57.0324 62.9859 -3.31697 
-140.861 72.9963 -3.0488 
-139.325 73.077 -3.03284 
-139.377 71.9357 -3.04397 
-139.325 73.0657 -3.03265 
-139.325 73.077 -3.03284 
-141.122 67.5272 -3.32331 
-139.572 67.6671 -3.3093 
-139.434 70.686 -3.12164 
-139.525 68.6882 -3.30499 
-139.39 71.6399 -3.12196 
-139.525 68.6882 -3.30499 
-139.572 67.6671 -3.3093 
-173.251 68.5555 -2.82755 
-173.251 68.5555 -2.81306 
-173.797 55.1824 -2.9402 
-173.797 55.1824 -2.89958 
-172.862 78.0742 -2.77878 
-177.45 55.3573 -2.92843 
-175.211 78.3634 -2.76895 
-178.656 68.6042 -2.85704 
-178.584 68.8088 -2.8552 
-173.259 68.3547 -2.81436 
-173.797 55.1824 -2.89958 
-172.948 75.97 -2.76509 
-175.211 78.3634 -2.76895 
-140.938 71.3743 -3.14941 
-140.988 70.3295 -3.1491 
-140.891 72.3569 -3.03793 
-141.122 67.5272 -3.32331 
-141.068 68.6469 -3.31857 
-141.068 68.6469 -3.31857 
-174.971 23.0245 3.64429 
-174.971 23.015 -0.514476 
-175.097 23.021 -0.510896 
-174.971 23.015 -0.514476 
-175.076 23.0295 3.65114 
-174.971 23.0245 3.64429 
-175.097 23.021 -0.510896 
-175.076 23.0295 3.65114 
-161.326 9.92093 -1.03508 
-159.794 9.36443 -0.897243 
-159.77 9.84559 -0.907553 
-159.794 9.36446 -1.03267 
-159.794 9.36443 -0.897243 
-159.77 9.84569 -1.03313 
-159.77 9.84559 -0.907553 
-159.77 9.84569 -1.03313 
-173.797 55.1826 -3.00647 
-183.234 55.6344 -2.97412 
-173.797 55.1824 -2.89958 
-177.45 55.3573 -2.92843 
-183.234 55.6344 -2.97412 
-173.259 68.3548 -2.82924 
-173.797 55.1826 -3.00647 
-173.797 55.1824 -2.9402 
4 68 60 54 58 
4 6 7 0 1 
4 4 5 3 2 
4 10 11 9 8 
3 138 139 72 
4 25 19 14 15 
5 22 23 16 21 17 
3 24 26 18 
3 21 20 17 
4 27 26 25 15 
5 382 377 113 46 41 
5 121 118 323 47 42 
4 378 379 133 119 
4 221 222 50 85 
3 223 224 48 
4 281 282 262 263 
4 390 387 129 130 
4 283 284 264 265 
3 40 239 238 
4 43 257 83 49 
3 90 84 366 
4 45 102 85 50 
5 117 322 52 46 113 
5 324 325 53 47 323 
4 100 106 86 82 
4 322 330 82 52 
4 325 332 93 53 
4 64 66 62 63 
5 67 69 64 65 61 
4 69 70 66 64 
6 69 67 239 40 59 68 
4 70 69 68 58 
4 179 147 74 75 
4 286 287 78 266 
4 319 339 170 81 
7 343 344 107 218 220 228 87 
3 44 81 170 
4 88 89 73 55 
4 103 94 79 93 
3 289 290 95 
4 291 292 80 229 
3 293 294 99 
4 330 346 100 82 
4 332 348 103 93 
4 391 392 105 137 
3 356 180 179 
4 115 117 113 402 
3 114 115 402 
3 120 121 42 
4 122 393 383 189 
4 399 395 384 124 
4 408 398 131 132 
4 379 399 124 133 
5 360 353 12 144 181 
5 361 354 13 145 182 
3 57 148 140 
5 355 357 91 233 234 
4 153 213 197 183 
5 156 56 334 236 155 
4 33 198 192 157 
4 164 159 199 163 
4 166 198 36 165 
4 160 360 181 167 
4 161 361 182 168 
3 171 242 230 
3 226 243 326 
6 175 364 172 71 146 174 
3 177 178 318 
3 357 368 91 
4 186 197 212 30 
4 448 449 308 403 
4 209 214 208 195 
3 393 34 383 
4 321 405 394 369 
4 232 280 190 206 
4 469 297 196 429 
4 213 217 212 197 
4 198 33 188 36 
3 159 164 191 
3 198 166 192 
4 134 201 323 118 
4 249 253 345 247 
4 252 254 347 250 
4 28 247 345 329 
4 29 250 347 331 
4 197 186 200 183 
4 202 434 431 205 
3 349 207 206 
5 210 209 195 185 184 
4 450 451 309 310 
4 452 453 311 312 
3 35 210 184 
3 211 435 39 
4 436 437 337 215 
4 207 216 232 206 
3 219 220 218 
4 225 371 366 245 
4 467 468 280 232 
3 154 235 227 
4 283 299 260 258 
4 240 241 238 239 
3 244 67 61 
4 176 245 366 84 
3 248 249 247 
3 251 252 250 
4 281 300 261 259 
4 76 276 255 256 
4 162 274 270 231 
4 268 277 272 38 
4 31 278 338 37 
3 282 281 259 
3 284 283 258 
3 285 374 340 
4 287 286 49 83 
5 290 289 267 218 107 
4 292 291 96 97 
5 294 293 268 38 98 
3 295 296 169 
4 363 364 335 298 
5 299 283 265 273 269 
5 300 281 263 275 271 
4 302 313 110 301 
4 304 314 111 303 
4 459 460 149 305 
4 461 462 150 306 
4 320 319 81 51 
3 322 117 116 
3 325 324 32 
4 359 327 226 326 
4 330 322 116 329 
4 332 325 32 331 
5 339 319 318 178 338 
5 342 440 429 196 341 
4 344 343 151 141 
4 346 330 329 345 
4 348 332 331 347 
4 351 405 404 350 
3 357 355 356 
3 152 358 333 
3 56 156 317 
4 376 359 326 158 
4 362 363 298 173 
3 364 175 335 
5 371 367 336 90 366 
5 368 357 356 179 75 
5 77 370 349 206 190 
4 246 372 365 237 
4 373 339 338 278 
3 288 375 352 
4 92 376 158 279 
3 381 382 41 
4 385 386 380 128 
4 415 390 130 328 
4 393 122 388 123 
3 395 396 384 
4 34 393 123 187 
4 406 407 397 193 
4 101 408 132 194 
4 377 409 402 113 
4 108 410 400 203 
4 109 411 401 204 
4 104 412 389 135 
4 127 415 328 136 
3 405 351 394 
3 125 416 414 
4 143 442 426 418 
4 142 443 424 419 
4 417 444 420 421 
4 443 445 423 424 
4 442 446 425 426 
4 422 447 427 428 
3 440 430 429 
4 432 471 469 438 
4 430 438 469 429 
3 434 439 431 
4 437 441 433 337 
4 454 455 413 316 
4 457 458 315 307 
4 112 463 456 126 
4 464 465 436 215 
4 466 467 232 216 
4 471 470 297 469 
