ply
format ascii 1.0
comment Generated by the CGAL library
element vertex 450
property double x
property double y
property double z
element face 272
property list uchar int vertex_indices
end_header
-123.775 3.46565 6.91554 
-123.819 3.50029 3.7461 
-123.929 3.58628 -4.12232 
-124.173 3.59764 -4.20387 
-124.127 3.59565 -4.20438 
-123.997 3.47283 7.14476 
-123.966 3.58873 -4.20616 
-123.924 3.46972 7.14477 
-124.05 3.5103 3.73791 
-126.679 3.58839 7.14447 
-124.291 3.60272 -4.20257 
-123.93 3.5872 -4.20655 
-124.006 3.50842 3.73945 
-123.962 3.47133 7.14477 
-123.963 3.50653 3.74099 
-139.79 4.15329 7.14302 
-138.857 4.15289 3.29025 
-137.107 4.15212 -3.9354 
-123.772 3.46377 7.08705 
-139.739 4.15327 6.93563 
-126.631 3.58867 6.91913 
-123.962 3.47628 6.6659 
-123.962 3.4737 6.91577 
-138.851 4.15288 3.26585 
-125.948 3.59277 3.6704 
-124.055 3.5139 3.41044 
-124.011 3.51203 3.4108 
-123.919 3.57823 -3.38612 
-123.963 3.50994 3.41119 
-123.923 3.50478 3.74242 
-123.824 3.50426 3.38215 
-123.955 3.47102 7.14477 
-132.746 3.85207 6.92683 
-132.747 3.84986 7.1438 
-125.89 3.59312 3.39554 
-132.707 3.96319 -3.99781 
-132.734 3.88765 3.42903 
-132.733 3.88856 3.33997 
-132.733 3.88883 3.3132 
-124.309 3.60261 -4.11692 
-125.884 3.59316 3.36621 
-135.979 4.02864 3.31362 
-136.897 4.06853 3.28098 
-123.824 3.50393 3.41232 
-138.838 4.15288 3.21193 
-124.172 3.5967 -4.11888 
-124.055 3.51423 3.38036 
-124.125 3.59472 -4.11953 
-124.012 3.51236 3.3807 
-123.966 3.58785 -4.1218 
-123.963 3.51025 3.38107 
-123.922 3.50819 3.41152 
-123.922 3.5085 3.38139 
-124 3.47535 6.91582 
-123.997 3.47344 7.08901 
-126.672 3.58843 7.11237 
-123.958 3.47354 6.91577 
-123.955 3.47164 7.08864 
-123.962 3.47191 7.0887 
-123.772 3.46314 7.14479 
-123.924 3.47208 6.91573 
-123.924 3.4703 7.08837 
-130.301 3.74445 7.14407 
-123.824 3.50393 3.41232 
-123.93 3.5872 -4.20655 
-132.707 3.96319 -3.99781 
-124.309 3.60261 -4.11692 
-123.93 3.5872 -4.20655 
-124.309 3.60261 -4.11692 
-137.107 4.15212 -3.9354 
-124.103 4.16034 -4.13108 
-123.772 3.46314 7.14479 
-123.738 4.16345 6.91701 
-123.912 3.93247 -4.21176 
-123.736 4.16349 7.06422 
-123.79 4.16249 3.38102 
-139.739 4.15327 6.93563 
-123.772 3.46377 7.08705 
-123.924 3.46972 7.14477 
-130.301 3.74445 7.14407 
-123.927 4.16338 7.14374 
-123.766 3.5681 7.14463 
-123.925 3.57579 7.14461 
-139.79 4.15329 7.14302 
-135.896 4.15577 7.1432 
-123.931 4.16338 7.14374 
-133.22 4.15747 7.14332 
-131.17 4.0331 7.1436 
-134.432 4.1567 7.14326 
-130.724 3.8849 7.14384 
-130.795 3.90866 7.1438 
-134.889 4.15641 7.14324 
-126.679 3.58839 7.14447 
-131.034 3.98778 7.14367 
-128.846 3.89208 7.14391 
-127.115 3.81637 7.14411 
-131.448 4.12534 7.14345 
-131.911 4.15831 7.14338 
-123.997 3.47283 7.14476 
-123.95 3.57702 7.14461 
-124.359 3.61988 7.14453 
-123.992 3.59368 7.14458 
-123.991 3.59758 7.14458 
-123.988 3.6796 7.14446 
-123.955 3.47102 7.14477 
-123.946 3.67778 7.14446 
-123.927 4.15834 7.14375 
-132.74 4.00286 7.14357 
-132.747 3.84986 7.1438 
-131.54 3.94475 7.14371 
-132.738 4.03255 7.14353 
-132.732 4.15778 7.14334 
-132.733 4.12793 7.14338 
-133.746 4.1064 7.14337 
-132.737 4.06226 7.14348 
-123.968 4.16336 7.14374 
-123.992 3.57905 7.1446 
-123.957 3.57734 7.14461 
-123.956 3.59117 7.14459 
-123.95 3.59504 7.14458 
-123.956 3.59544 7.14458 
-123.952 3.67805 7.14446 
-123.962 3.47133 7.14477 
-139.79 4.15329 7.14302 
-123.772 3.46314 7.14479 
-123.899 4.16047 -4.13415 
-124.159 3.93694 -4.20895 
-132.69 4.30556 -4.00485 
-132.721 4.14527 3.33993 
-124.039 3.75681 3.73802 
-124.14 3.908 -2.93201 
-132.721 4.14587 3.31275 
-124.044 3.76424 3.41039 
-132.719 4.15667 2.81774 
-127.077 3.89806 3.35644 
-124.045 3.76493 3.37991 
-132.703 4.23783 -0.90112 
-129.271 4.15708 -4.05332 
-131.629 4.1568 0.645649 
-129.76 4.01588 3.33567 
-127.09 3.89802 3.38565 
-129.74 4.01439 3.36413 
-129.618 4.00519 3.53957 
-134.838 4.39883 -3.97441 
-132.697 4.15491 -4.00176 
-123.928 3.62167 -4.20707 
-129.22 4.15708 -4.15325 
-124.159 3.93694 -4.20895 
-124.158 3.93505 -4.12579 
-123.912 3.92622 -4.21166 
-124.14 3.908 -2.93201 
-133.13 4.27749 -4.1095 
-134.889 4.15641 7.14324 
-132.721 4.14332 3.42922 
-127.139 3.81817 7.10972 
-123.991 3.68477 6.91627 
-123.946 3.67778 7.14446 
-134.918 4.40491 -4.09054 
-124.028 4.16235 3.4103 
-124.173 3.59764 -4.20387 
-124.104 4.16032 -4.21282 
-123.991 3.68477 6.91627 
-123.937 8.34141 -4.21646 
-124.158 3.93505 -4.12579 
-124.148 4.16032 -4.1304 
-123.94 9.20231 -4.23347 
-123.968 4.16336 7.14374 
-124.022 4.16244 3.7382 
-124.15 4.16029 -4.21229 
-124.127 3.59565 -4.20438 
-124.148 4.16032 -4.1304 
-123.94 4.16043 -4.21473 
-123.925 3.57579 7.14461 
-132.692 4.24628 -4.11414 
-135.896 4.15577 7.1432 
-123.916 3.8315 -4.12737 
-123.917 3.83344 -4.21026 
-123.912 3.92622 -4.21166 
-123.767 3.57781 7.08333 
-123.957 3.57869 7.08522 
-123.767 3.56953 7.0836 
-133.574 4.15627 3.39891 
-134.432 4.1567 7.14326 
-124.291 3.60272 -4.20257 
-132.694 4.21711 -4.1137 
-123.951 3.57842 7.08517 
-123.957 3.57734 7.14461 
-123.957 3.57869 7.08522 
-123.95 3.59504 7.14458 
-123.98 4.16247 3.7397 
-123.931 4.16338 7.14374 
-124.117 3.84306 -4.20808 
-123.92 4.16044 -4.21496 
-123.966 3.58873 -4.20616 
-132.72 4.1568 3.31273 
-132.72 4.15683 3.42923 
-133.02 4.15663 3.41859 
-132.72 4.1568 3.33993 
-132.98 4.15664 3.33783 
-132.966 4.15664 3.31085 
-132.72 4.15683 3.42923 
-131.875 4.15543 -4.01413 
-123.784 4.16259 3.74665 
-124.15 4.16029 -4.21229 
-123.9 4.16045 -4.21519 
-123.899 4.16047 -4.13415 
-123.985 4.16238 3.41064 
-124.028 4.16235 3.4103 
-131.448 4.12534 7.14345 
-123.968 4.16336 7.14374 
-123.971 4.1633 6.91729 
-129.22 4.15708 -4.15325 
-132.711 4.15603 0.341277 
-132.689 4.30797 -4.11507 
-124.159 3.94734 -4.2091 
-134.838 4.39883 -3.97441 
-132.731 4.15773 6.92748 
-123.736 4.16349 7.06422 
-131.85 4.15542 -4.12263 
-123.947 3.6792 7.0819 
-124.291 3.60272 -4.20257 
-124.103 4.16034 -4.13108 
-124.15 4.16029 -4.21229 
-123.927 4.15834 7.14375 
-124.104 4.16032 -4.21282 
-131.875 4.15543 -4.01413 
-132.709 4.15584 -0.376656 
-132.697 4.15491 -4.00176 
-123.927 4.16338 7.14374 
-123.927 4.16338 7.13005 
-123.928 4.16336 7.06616 
-123.92 4.16044 -4.21496 
-123.911 3.92435 -4.12929 
-123.911 3.92994 -4.1294 
-124.159 3.94734 -4.2091 
-124.157 3.94478 -4.12599 
-123.9 4.16045 -4.21519 
-123.956 3.59117 7.14459 
-124.039 3.75681 3.73802 
-132.736 4.06698 6.92729 
-123.762 3.67112 7.08028 
-132.729 4.15753 6.14474 
-123.956 3.59134 7.08481 
-123.956 3.59544 7.14458 
-133.22 4.15747 7.14332 
-123.956 3.59723 7.08462 
-123.912 3.93247 -4.21176 
-124.159 3.93694 -4.20895 
-124.113 3.93495 -4.20945 
-124.113 3.94458 -4.2096 
-123.95 3.92787 -4.21124 
-124.163 3.84527 -4.20758 
-124.171 3.63898 -4.20449 
-124.125 3.63569 -4.20498 
-123.773 3.57947 6.65825 
-123.957 3.57734 7.14461 
-132.703 4.23783 -0.90112 
-123.766 3.58575 7.08307 
-130.614 4.1562 -4.13702 
-123.951 3.59094 7.08477 
-132.694 4.2153 -4.003 
-132.694 4.24495 -3.60751 
-123.957 3.57869 7.08522 
-132.692 4.24628 -4.11414 
-132.693 4.24599 -4.00363 
-123.928 3.62167 -4.20707 
-123.919 3.79944 -4.20975 
-123.964 3.62422 -4.20669 
-127.202 3.89764 3.62551 
-133.13 4.27749 -4.1095 
-134.918 4.40491 -4.09054 
-128.742 3.89243 6.92225 
-127.115 3.81637 7.14411 
-127.139 3.81817 7.10972 
-131.911 4.15831 7.14338 
-127.27 3.82809 6.9204 
-123.736 4.16349 7.06422 
-134.782 4.15642 6.92986 
-135.796 4.15578 6.93105 
-123.769 3.57847 6.91578 
-123.809 3.68818 3.74626 
-131.901 4.15826 6.92651 
-127.27 3.82809 6.9204 
-124.022 4.16244 3.7382 
-138.851 4.15288 3.26585 
-134.048 4.15651 5.46643 
-134.383 4.15668 6.9294 
-132.736 4.06698 6.92729 
-123.738 4.16345 6.91701 
-123.988 3.6796 7.14446 
-123.988 3.6796 7.14446 
-123.931 4.16332 6.89071 
-123.931 4.16332 6.91724 
-123.969 4.16334 7.06658 
-123.819 3.50029 3.7461 
-132.732 4.13433 6.92743 
-128.15 3.89443 5.65391 
-128.742 3.89243 6.92225 
-131.901 4.15826 6.92651 
-123.769 3.57345 6.91577 
-132.72 4.1568 3.33993 
-132.721 4.14527 3.33993 
-123.789 4.1625 3.41223 
-123.806 3.74644 3.7463 
-123.985 4.16238 3.41064 
-123.784 4.16259 3.74665 
-123.814 3.69843 3.41229 
-123.811 3.64751 3.74622 
-123.93 5.53307 3.41031 
-123.934 6.41812 3.40979 
-123.986 4.16237 3.37952 
-123.985 4.16238 3.41064 
-138.857 4.15289 3.29025 
-123.814 3.59078 3.74618 
-123.929 3.58628 -4.12232 
-133.559 4.15627 3.33314 
-134.133 4.15591 3.37904 
-124.045 3.76493 3.37991 
-124.028 4.16235 3.4103 
-123.934 6.41812 3.40979 
-123.94 9.20231 -4.23347 
-123.93 5.53307 3.41031 
-123.937 8.34141 -4.21646 
-123.934 6.41812 3.40979 
-123.93 5.53307 3.41031 
-123.937 8.34141 -4.21646 
-123.94 9.20231 -4.23347 
-123.925 3.58909 7.08456 
-123.925 3.57714 7.08495 
-123.95 3.57702 7.14461 
-123.933 4.1625 3.74136 
-123.925 4.1625 3.74165 
-123.919 3.61907 -3.53817 
-123.927 3.62134 -4.12304 
-123.919 3.77701 -4.12625 
-123.919 3.79944 -4.20975 
-123.928 4.16336 7.06616 
-123.927 4.16338 7.13005 
-123.927 4.16338 7.14374 
-123.955 3.83524 -4.20985 
-123.919 3.83353 -4.21024 
-123.92 3.92652 -4.21158 
-123.934 4.16241 3.41106 
-123.9 4.16045 -4.21519 
-123.94 4.16043 -4.21473 
-123.92 4.16046 -4.13383 
-123.927 4.15834 7.14375 
-123.927 4.16338 7.13005 
-123.927 4.16336 7.06615 
-123.925 3.67824 7.08171 
-123.95 3.93476 -4.21135 
-123.92 3.93292 -4.21168 
-123.95 3.59689 7.08457 
-123.925 3.59534 7.08436 
-123.824 3.50426 3.38215 
-123.917 3.83344 -4.21026 
-132.721 4.14587 3.31275 
-132.719 4.15667 2.81774 
-132.72 4.1568 3.31273 
-137.107 4.15212 -3.9354 
-132.697 4.15491 -4.00176 
-132.694 4.2153 -4.003 
-134.918 4.40491 -4.09054 
-132.693 4.24599 -4.00363 
-131.421 4.15569 -4.12762 
-132.692 4.24628 -4.11414 
-132.694 4.21711 -4.1137 
-131.901 4.15826 6.92651 
-131.85 4.15542 -4.12263 
-133.034 4.27032 -3.99898 
-132.703 4.23783 -0.90112 
-132.694 4.2153 -4.003 
-132.694 4.21711 -4.1137 
-132.711 4.15603 0.341277 
-132.736 4.06698 6.92729 
-132.721 4.14332 3.42922 
-132.709 4.15584 -0.376656 
-132.692 4.25636 -4.11429 
-132.694 4.24495 -3.60751 
-132.689 4.30797 -4.11507 
-132.732 4.13433 6.92743 
-133.114 4.15748 6.92792 
-132.731 4.15773 6.92748 
-132.732 4.15778 7.14334 
-132.731 4.15773 6.92748 
-132.719 4.15667 2.81774 
-132.729 4.15753 6.14474 
-123.811 3.75398 3.41228 
-123.811 3.75467 3.38172 
-123.79 4.16249 3.38102 
-123.934 6.43075 3.37513 
-124.148 4.16032 -4.1304 
-124.028 4.16234 3.3792 
-123.93 5.54533 3.37703 
-123.986 4.16237 3.37952 
-123.816 3.65532 3.4123 
-123.816 3.65603 3.38189 
-123.902 3.9088 -3.44072 
-123.814 3.69937 3.38181 
-123.934 6.43075 3.37513 
-123.93 5.54533 3.37703 
-123.819 3.59207 3.41231 
-123.82 3.59219 3.382 
-134.11 4.15592 3.32868 
-134.097 4.15592 3.3022 
-133.029 4.156 1.02016 
-133.553 4.15626 3.30636 
-135.976 4.15472 3.31357 
-136.9 4.15413 3.28077 
-124.044 3.76424 3.41039 
-138.838 4.15288 3.21193 
-123.789 4.1625 3.41223 
-124.103 4.16034 -4.13108 
-123.94 4.16045 -4.13353 
-123.934 4.1624 3.37992 
-123.919 3.57823 -3.38612 
-123.925 4.16242 3.41113 
-123.925 4.16241 3.37999 
-123.768 3.59089 6.9158 
-123.767 3.57781 7.08333 
-127.115 3.81637 7.14411 
-123.956 3.59723 7.08462 
-123.775 3.46565 6.91554 
-123.951 3.57842 7.08517 
-123.931 4.16336 7.06619 
-123.93 4.16332 6.91724 
-123.928 4.16336 7.06616 
-123.989 3.68101 7.08226 
-123.969 4.16334 7.06658 
-131.911 4.15831 7.14338 
-123.764 3.67483 6.91598 
-123.766 3.58575 7.08307 
-123.95 3.59504 7.14458 
-127.27 3.82809 6.9204 
-123.989 3.68101 7.08226 
-123.971 4.1633 6.91729 
-123.762 3.67112 7.08028 
-123.95 3.59689 7.08457 
-123.956 3.59544 7.14458 
-123.925 3.57714 7.08495 
-123.927 4.16333 6.91723 
-123.95 3.59689 7.08457 
-123.956 3.59723 7.08462 
-123.766 3.5681 7.14463 
-123.767 3.56953 7.0836 
-123.956 3.59134 7.08481 
-123.766 3.5681 7.14463 
-123.947 3.6792 7.0819 
-123.767 3.56953 7.0836 
-123.927 4.16336 7.06615 
4 34 25 8 24 
3 136 138 133 
4 356 358 300 301 
4 32 33 15 19 
4 39 10 3 45 
4 4 47 45 3 
4 25 26 12 8 
5 22 53 8 12 21 
4 6 49 47 4 
4 26 28 14 12 
5 29 60 56 21 14 
4 38 40 34 37 
4 54 55 20 53 
4 57 58 22 56 
4 49 6 11 2 
4 51 29 14 28 
3 14 21 12 
4 32 36 24 20 
4 58 54 53 22 
4 57 61 7 31 
4 53 20 24 8 
3 56 22 21 
4 23 42 41 16 
4 40 46 25 34 
4 46 48 26 25 
4 48 50 28 26 
3 37 36 41 
3 30 52 27 
4 29 51 43 1 
5 52 50 49 2 27 
4 60 29 1 0 
4 61 18 59 7 
5 55 62 33 32 20 
5 38 42 44 17 35 
5 36 32 19 16 41 
4 36 37 34 24 
4 40 38 35 39 
4 42 38 37 41 
3 42 23 44 
4 46 40 39 45 
4 48 46 45 47 
4 50 48 47 49 
4 52 30 43 51 
4 50 52 51 28 
4 55 54 5 9 
4 58 57 31 13 
4 54 58 13 5 
4 61 57 56 60 
4 18 61 60 0 
3 62 55 9 
4 388 389 302 387 
4 252 253 191 251 
4 234 235 391 203 
4 390 392 318 319 
4 393 394 304 321 
4 323 324 206 207 
5 277 278 316 181 285 
4 431 419 279 418 
3 100 95 94 
5 107 108 79 89 109 
4 95 96 87 94 
5 98 116 90 89 92 
4 81 82 78 71 
5 107 110 113 91 84 
5 111 112 87 96 97 
3 94 87 93 
4 112 114 93 87 
3 101 102 100 
3 109 89 90 
3 92 89 79 
3 110 114 113 
3 113 88 91 
4 102 103 95 100 
4 99 104 78 82 
4 118 120 102 101 
4 120 121 103 102 
5 85 121 105 106 80 
6 116 101 100 94 93 90 
4 117 122 104 99 
4 108 107 84 83 
3 110 107 109 
3 112 111 86 
5 114 112 86 88 113 
5 114 110 109 90 93 
4 117 118 101 116 
4 121 120 119 105 
4 121 85 115 103 
4 122 117 116 98 
4 137 211 126 163 
4 134 135 132 140 
4 139 141 128 131 
4 140 132 129 268 
4 141 142 375 128 
3 135 134 130 
3 136 143 127 
6 139 138 137 163 130 134 
4 138 136 127 137 
4 141 139 134 140 
4 142 141 140 268 
4 138 139 131 133 
4 261 256 357 212 
4 396 398 306 395 
4 175 176 149 232 
4 399 400 308 309 
4 277 286 182 152 
5 295 287 153 200 241 
4 288 430 303 202 
4 173 363 369 151 
4 158 311 189 167 
4 365 366 218 364 
4 325 326 164 221 
5 292 435 167 189 291 
4 160 412 170 168 
4 339 250 248 191 
4 327 328 180 178 
4 311 342 330 189 
4 440 331 305 72 
4 171 413 412 160 
4 251 191 248 247 
5 312 407 316 278 76 
3 254 313 307 
5 396 402 332 334 175 
4 334 335 176 175 
4 151 369 215 157 
4 145 267 193 64 
3 285 181 196 
4 404 406 315 403 
4 286 381 244 182 
7 404 408 410 69 144 376 405 
3 226 227 260 
4 213 377 258 146 
4 187 423 329 186 
5 424 426 337 338 190 
4 340 341 250 339 
4 331 416 411 305 
3 330 291 189 
4 192 345 413 171 
4 267 253 169 193 
3 194 199 385 
4 198 197 195 196 
4 199 194 197 198 
4 360 65 66 201 
4 233 246 204 205 
4 318 409 238 283 
4 427 428 210 155 
4 127 379 211 137 
4 364 252 251 258 
3 239 380 271 
4 214 249 224 222 
4 249 350 344 224 
4 225 368 220 68 
4 146 258 251 247 
3 228 229 223 
4 348 349 240 74 
4 231 351 73 236 
3 233 397 232 
4 235 234 147 148 
4 306 387 303 280 
4 349 353 257 240 
4 382 383 244 381 
4 242 259 352 245 
4 246 233 232 149 
3 150 235 148 
5 380 384 367 275 271 
4 249 214 247 248 
4 350 249 248 250 
4 351 341 177 73 
4 253 252 159 169 
3 279 299 254 
5 199 406 405 373 385 
3 365 377 269 
4 327 353 352 259 
5 299 422 294 313 254 
5 264 261 212 226 260 
4 332 415 314 333 
4 263 264 260 184 
4 265 333 314 67 
5 266 340 339 267 145 
3 296 142 268 
4 253 267 339 191 
5 252 364 218 183 159 
4 273 434 290 272 
4 259 242 262 185 
4 278 277 152 174 
5 418 279 254 307 280 
5 154 208 429 281 282 
3 286 277 285 
4 217 436 430 288 
4 424 293 435 292 
4 423 439 172 329 
4 76 278 174 123 
6 195 386 381 286 285 196 
3 425 292 291 
4 155 210 283 238 
4 430 418 280 303 
3 216 295 241 
3 433 297 296 
4 419 444 299 279 
4 444 77 422 299 
5 161 433 296 268 129 
4 301 300 200 153 
4 387 302 202 303 
4 395 306 280 307 
4 310 414 342 311 
4 284 408 407 312 
4 401 395 307 313 
4 403 315 181 316 
3 407 403 316 
4 75 417 345 125 
4 392 317 409 318 
4 398 388 387 306 
4 315 198 196 181 
4 63 401 313 294 
4 328 327 259 185 
5 331 440 425 291 330 
3 334 332 333 
4 335 334 333 265 
4 341 340 355 177 
4 416 331 330 342 
4 345 192 343 125 
5 336 447 156 346 347 
4 349 348 230 219 
4 351 231 344 350 
4 353 349 219 352 
4 341 351 350 250 
4 353 327 178 257 
4 402 354 415 332 
3 340 266 355 
4 439 448 446 172 
4 417 414 413 345 
3 358 356 357 
3 361 360 201 
4 378 370 215 369 
4 371 372 368 225 
3 376 373 405 
5 374 375 142 296 297 
4 377 213 362 269 
3 65 360 359 
3 363 378 369 
4 379 127 143 270 
4 383 382 298 274 
4 377 365 364 258 
3 386 382 381 
5 389 388 397 233 205 
4 392 390 320 391 
4 394 393 322 70 
5 398 396 175 232 397 
4 400 399 165 162 
4 402 396 395 401 
3 406 404 405 
4 408 404 403 407 
4 406 199 198 315 
4 414 310 412 413 
3 408 284 410 
4 417 75 411 416 
5 317 392 391 235 150 
3 388 398 397 
4 354 402 401 63 
4 414 417 416 342 
4 445 421 243 237 
4 426 424 292 425 
4 428 427 289 209 
4 436 431 418 430 
4 434 273 433 161 
3 208 154 420 
4 447 437 432 156 
4 293 424 190 166 
4 449 426 425 440 
4 441 442 438 188 
4 77 444 443 124 
4 179 445 237 255 
4 276 449 440 72 
